<?xml version="1.0" standalone="no"?>
<!DOCTYPE svg PUBLIC "-//W3C//DTD SVG 20010904//EN"
 "http://www.w3.org/TR/2001/REC-SVG-20010904/DTD/svg10.dtd">
<svg version="1.0" xmlns="http://www.w3.org/2000/svg"
 width="700.000000pt" height="700.000000pt" viewBox="0 0 700.000000 700.000000"
 preserveAspectRatio="xMidYMid meet">
<metadata>
Created by potrace 1.11, written by Peter Selinger 2001-2013
</metadata>
<g transform="translate(0.000000,700.000000) scale(0.100000,-0.100000)"
fill="#000000" stroke="none">
<path d="M3329 6996 c-2 -2 -43 -7 -91 -10 -48 -3 -93 -8 -100 -11 -7 -2 -33
-7 -58 -10 -74 -11 -81 -12 -194 -39 -116 -28 -345 -102 -360 -117 -6 -5 -16
-9 -24 -9 -21 0 -256 -119 -362 -184 -94 -57 -253 -172 -320 -231 -301 -264
-493 -509 -656 -835 -102 -205 -202 -501 -229 -680 -4 -25 -9 -54 -11 -65 -27
-144 -41 -429 -22 -464 15 -28 56 -61 84 -66 10 -2 124 -4 253 -4 l235 -1 -32
-24 c-86 -63 -166 -189 -187 -296 -6 -30 -7 -134 -1 -170 11 -72 51 -163 100
-229 64 -85 223 -188 319 -206 20 -4 39 -11 42 -15 3 -4 7 -50 9 -101 16 -323
119 -627 306 -904 27 -40 55 -79 62 -86 7 -8 36 -41 63 -74 28 -33 79 -88 114
-122 l64 -61 -11 -39 c-37 -136 -215 -749 -218 -752 -2 -2 -297 -5 -656 -6
-599 -1 -658 -3 -713 -19 -231 -70 -389 -247 -429 -481 -7 -43 -11 -170 -10
-330 1 -291 4 -309 68 -339 31 -15 286 -16 3136 -16 2811 0 3105 1 3135 16 67
31 68 39 69 329 1 143 -2 287 -7 320 -30 237 -201 435 -433 501 -52 15 -134
17 -713 19 l-655 2 -7 24 c-35 118 -51 172 -84 289 -51 181 -112 396 -127 443
l-11 37 91 93 c50 50 111 117 135 147 161 202 284 458 341 705 29 130 34 169
41 300 3 54 8 102 13 105 4 4 27 12 52 19 137 39 273 138 336 247 127 217 94
452 -90 627 l-50 47 230 1 c253 1 255 1 289 23 50 33 58 66 51 217 -3 76 -8
144 -10 151 -3 7 -7 38 -10 68 -12 114 -45 267 -97 445 -45 154 -172 430 -270
587 -49 77 -114 172 -134 194 -5 7 -19 25 -30 40 -33 47 -185 214 -260 285
-366 349 -840 591 -1325 675 -14 3 -32 7 -40 9 -8 2 -42 7 -75 11 -33 3 -69 8
-80 11 -24 5 -441 14 -446 9z m306 -241 c66 -3 136 -8 155 -10 68 -9 154 -24
230 -41 14 -3 35 -7 47 -10 12 -2 35 -9 50 -15 16 -6 30 -10 33 -10 3 0 30 -7
60 -16 138 -39 386 -152 507 -229 29 -19 56 -34 58 -34 3 0 38 -23 78 -52 331
-239 587 -531 754 -863 97 -192 171 -389 198 -523 2 -9 10 -52 19 -94 17 -84
31 -177 41 -280 l7 -68 -295 0 -296 0 -3 168 c-3 154 -5 169 -25 198 -15 20
-36 35 -60 41 -38 9 -74 3 -848 -161 -66 -14 -135 -28 -152 -31 -18 -3 -63
-12 -100 -21 -38 -9 -81 -18 -98 -21 -16 -3 -79 -15 -140 -28 -60 -13 -121
-26 -135 -29 -14 -2 -59 -12 -100 -22 -104 -24 -141 -22 -335 20 -159 35 -580
122 -635 133 -13 2 -56 11 -95 19 -59 13 -406 86 -470 100 -11 2 -54 11 -95
19 -41 8 -86 18 -100 21 -65 14 -120 -1 -146 -41 -22 -33 -22 -37 -23 -217
l-1 -148 -296 0 -296 0 7 68 c3 37 9 87 11 112 6 53 51 282 64 325 91 299 227
578 384 785 206 272 446 486 729 649 100 57 306 151 407 185 86 29 286 81 345
90 48 8 89 14 130 21 17 3 86 8 155 11 69 4 127 8 128 10 2 1 9 1 15 -1 7 -2
66 -6 132 -10z m-1490 -2136 c83 -17 159 -33 170 -35 11 -2 52 -10 90 -18 39
-9 81 -18 95 -20 14 -2 57 -11 95 -20 39 -8 82 -17 95 -20 14 -2 177 -36 364
-75 186 -39 348 -73 360 -75 11 -2 37 -7 57 -11 31 -6 71 -1 164 21 16 4 168
36 189 40 68 13 761 157 886 184 25 5 56 12 70 14 14 2 45 9 70 15 25 5 56 12
70 15 14 2 45 9 70 15 24 5 46 8 49 6 2 -3 4 -305 4 -672 0 -607 -5 -848 -18
-885 -2 -7 -7 -31 -10 -53 -20 -141 -102 -361 -186 -503 -27 -46 -72 -115 -79
-122 -3 -3 -29 -34 -57 -70 -129 -162 -311 -307 -508 -405 -136 -68 -320 -129
-421 -140 -32 -4 -63 -10 -68 -13 -15 -9 -296 -10 -361 -2 -152 20 -195 30
-340 78 -308 102 -597 328 -780 607 -114 173 -201 387 -229 560 -27 165 -27
180 -27 895 -1 814 -3 733 19 726 9 -3 85 -19 167 -37z m-425 -764 c0 -151 -3
-275 -6 -275 -15 0 -83 36 -117 63 -129 100 -148 264 -46 381 40 45 130 106
157 106 9 0 12 -62 12 -275z m3621 254 c95 -48 167 -145 173 -232 9 -117 -87
-253 -202 -287 l-32 -9 0 275 c0 183 3 274 10 274 6 0 29 -9 51 -21z m-698
-2918 c-1 -2 -232 -5 -513 -5 l-510 -1 0 183 c0 182 0 182 23 183 12 0 29 2
37 3 8 2 42 6 75 10 194 22 492 129 670 240 l40 24 91 -316 c50 -174 89 -319
87 -321z m-2050 602 c66 -41 254 -127 342 -156 89 -29 221 -61 305 -73 30 -4
58 -9 63 -10 4 -1 23 -2 42 -3 l35 -1 0 -182 0 -183 -503 2 c-276 0 -507 2
-513 2 -12 1 165 631 178 631 4 0 27 -12 51 -27z m3589 -854 c130 -28 233
-123 269 -250 16 -55 21 -437 6 -446 -14 -8 -4356 -10 -4370 -1 -7 4 -11 89
-12 255 -1 270 -3 280 -58 313 -31 19 -55 20 -530 20 -423 0 -504 -2 -531 -15
-59 -28 -61 -35 -66 -319 l-5 -259 -165 0 c-91 1 -170 2 -176 2 -7 1 -10 65
-9 209 1 192 3 213 25 271 38 104 130 186 240 217 62 17 5301 20 5382 3z
m-4360 -348 c15 -1 17 -18 17 -176 0 -129 -3 -175 -12 -176 -7 0 -166 -1 -355
-1 l-343 -1 -2 176 c-2 169 -1 176 18 179 17 3 628 1 677 -1z"/>
<path d="M2456 6360 c-217 -121 -347 -219 -511 -384 -89 -90 -295 -341 -295
-359 0 -6 140 -111 168 -126 21 -11 26 -10 37 6 213 301 439 507 729 663 53
29 96 56 96 60 0 14 -98 194 -107 197 -5 2 -57 -24 -117 -57z"/>
<path d="M2434 3905 c-2 -5 -3 -59 -2 -119 l3 -110 118 2 c106 1 117 -1 117
-17 0 -41 34 -112 71 -149 125 -123 346 -69 388 95 7 26 14 53 16 59 3 8 102
11 356 10 l353 -1 10 -47 c33 -145 196 -227 327 -164 74 35 139 128 139 197 0
16 11 18 108 17 59 0 113 0 120 1 9 1 12 31 12 116 0 63 -3 116 -7 116 -5 1
-484 2 -1067 3 -699 1 -1060 -2 -1062 -9z"/>
<path d="M3145 2373 l1 -118 354 0 355 0 0 118 1 117 -356 0 -356 0 1 -117z"/>
</g>
</svg>
