<svg xmlns="http://www.w3.org/2000/svg" version="1.1" width="600px" height="600px" xlink="http://www.w3.org/1999/xlink" style="overflow:hidden!important;"><g id="svga-group-wrapper" transform="scale(3 3)"><g id="svga-group-backs-single"><path id="SvgjsPath4101" d="M225 225H-25V-25h250V225z" fill="#ecf0f1" stroke-width="none" opacity="1"></path></g><g id="svga-group-subwrapper" ><g id="svga-group-hair-back" ><path id="SvgjsPath4279" d="M155.728 11.564H44.272C28.491 30.71 21.813 58.319 32.461 90.745c8.949 28.091 13.512 36.882 21.14 58.24 0 0 0.003-4.164-0.1-6.51 3.068 7.797 1.906 5.192 4.189 9.279 0.064-3.704-0.192-7.47-0.55-11.13 2.294 9.156 3.72 11.162 6.37 16.48 0.481-3.005 0.55-5.61 0.55-8.3 0.006 0.022 5.33 16.002 5.33 16.02 0.26 0.771 0.51 1.5 0.73 2.15 0.284-3.106 0.558-7.202 0.773-11.023 0.698 2.131 1.545 4.613 2.445 7.111 0.388 2.607 0.785 5.354 1.151 8.021 0.15-1.35 50.867-1.35 51.018 0 0.366-2.668 0.764-5.415 1.151-8.023 0.9-2.498 1.747-4.979 2.445-7.109 0.216 3.821 0.489 7.917 0.773 11.023 0.221-0.65 0.471-1.38 0.73-2.15 0-0.018 5.324-15.997 5.33-16.02 0 2.689 0.068 5.295 0.55 8.3 2.65-5.318 4.076-7.324 6.37-16.48 -0.357 3.66-0.614 7.426-0.55 11.13 2.283-4.087 1.121-1.482 4.189-9.279 -0.103 2.346-0.1 6.51-0.1 6.51 7.628-21.358 12.19-30.149 21.14-58.24C178.187 58.319 171.509 30.71 155.728 11.564z" fill="#2c2219" stroke-width="none" opacity="1" stroke="none"></path><path id="SvgjsPath4280" d="M155.731 11.562l1.149 5.18c13.415 18.712 18.158 44.437 8.958 73.864 -7.896 26.509-10.606 31.566-18.6 55.41 0.228-8.06-0.251-4.342 3.07-15.99 5.598-19.239 8.217-21.629 8.96-32.09 -1.767 11.506-7.022 17.952-10.37 31.68 -0.112 0.387-1.438 5.071-1.58 5.44 0 0.564-3.993 12.566-4.45 13.58 2.057-30.407 12.97-43.777 18.92-67.34 3.275-14.069 1.713-20.565-0.21-34.17 -0.978-6.889-2.307-14.719-5.38-17.19 3.303 3.303 4.087 11.762 4.66 17.22 0.404 3.898 2.475 15.697 0.93 26.87 -3.525 20.76-15.2 39.243-17.79 57.66 0 0 0.01 0.01 0 0.02 -2.935 11.237-3.169 13.813-7.04 23.021 -0.176-4.356-0.183-7.088 0.031-10.836 5.971-15.562 4.394-10.082 7.99-29.964 -0.22 0.598-3.94 11.747-7.424 22.354 0.236-2.84 0.535-6.295 0.902-10.704 0 0 0 0.01-0.01 0.03 -3.081 20.755-1.168 10.467-6.479 28.02 -1.796-14.726 2.294-35.978 2.71-39.279 -3.055 12.144-4.802 21.952-4.28 33.93 -0.307 0.995-0.52 1.694-0.678 2.22 -0.717-11.735-0.791-13.635-0.795-13.939 -0.376 17.315 0.313 1.76-2.906 25.071 -0.216 0.637-0.442 1.305-0.69 2.038 -0.74-5.766-1.127-13.335-1.421-16.189 -2.111-0.395-4.519-0.51-6.55-0.51 -9.976 0.257-3.828 0.929-17.36 1.256 -13.532-0.327-7.385-0.999-17.361-1.256 -2.031 0-4.438 0.115-6.55 0.51 -0.294 2.854-0.68 10.424-1.42 16.189 -0.249-0.733-0.475-1.401-0.69-2.038 -3.211-23.254-2.532-7.841-2.906-25.071 -0.004 0.305-0.079 2.204-0.795 13.94 -0.158-0.524-0.371-1.225-0.678-2.221 0.521-11.978-1.225-21.786-4.28-33.93 0.416 3.302 4.506 24.554 2.71 39.279 -5.323-17.587-3.395-7.268-6.479-28.02 -0.01-0.021-0.01-0.03-0.01-0.03 0.368 4.41 0.666 7.865 0.902 10.705 -3.483-10.606-7.204-21.757-7.424-22.354 3.596 19.873 2.02 14.401 7.991 29.965 0.214 3.747 0.207 6.479 0.031 10.835 -3.871-9.208-4.105-11.783-7.04-23.021 -0.01-0.01 0-0.02 0-0.02 -2.59-18.417-14.265-36.9-17.79-57.66 -1.545-11.173 0.525-22.972 0.93-26.87 0.573-5.458 1.357-13.917 4.66-17.22 -3.073 2.471-4.402 10.301-5.38 17.19 -1.923 13.605-3.485 20.101-0.21 34.17 5.95 23.563 16.863 36.933 18.92 67.34 -0.457-1.014-4.45-13.016-4.45-13.58 -0.143-0.369-1.468-5.054-1.58-5.44 -3.348-13.728-8.604-20.174-10.37-31.68 0.743 10.461 3.362 12.851 8.96 32.09 3.321 11.648 2.843 7.931 3.07 15.99 -7.993-23.844-10.703-28.901-18.6-55.41 -9.2-29.427-4.457-55.152 8.958-73.864l1.149-5.18C28.488 30.708 21.813 58.32 32.461 90.745c8.949 28.091 13.512 36.882 21.14 58.24 0 0 0.003-4.164-0.1-6.51 3.068 7.797 1.906 5.192 4.189 9.279 0.064-3.704-0.192-7.47-0.55-11.13 2.294 9.156 3.72 11.162 6.37 16.48 0.481-3.005 0.55-5.61 0.55-8.3 0.006 0.022 5.33 16.002 5.33 16.02 0.26 0.771 0.51 1.5 0.73 2.15 0.284-3.106 0.558-7.202 0.773-11.023 2.884 8.8 2.179 4.808 3.597 15.133 0.15-1.35 0.303-2.573 0.458-3.707 0.02 0.052 0.041 0.105 0.061 0.157 2.231-14.414 2.258-12.435 3.011-18.76 19.125 1.023 24.679 1.032 43.959 0 0.757 6.367 0.762 4.21 3.011 18.76 0.021-0.052 0.041-0.105 0.061-0.158 0.155 1.134 0.308 2.358 0.458 3.708 1.419-10.337 0.714-6.334 3.597-15.133 0.216 3.821 0.489 7.917 0.773 11.023 0.221-0.65 0.471-1.38 0.73-2.15 0-0.018 5.324-15.997 5.33-16.02 0 2.689 0.068 5.295 0.55 8.3 2.65-5.318 4.076-7.324 6.37-16.48 -0.357 3.66-0.614 7.426-0.55 11.13 2.283-4.087 1.121-1.482 4.189-9.279 -0.103 2.346-0.1 6.51-0.1 6.51 7.628-21.358 12.19-30.149 21.14-58.24C178.187 58.32 171.512 30.708 155.731 11.562zM69.491 163.165c-1.323-5.24-2.458-8.576-3.365-11.2 1.074 2.769 1.867 4.804 2.233 5.771 0.499-2.595 0.93-5.54 1.05-6.54 0.171 0.597 0.405 1.37 0.686 2.266C69.925 156.226 69.726 159.425 69.491 163.165zM71.052 153.015c0.061-1.21 0.115-2.355 0.159-3.379 0.122 0.597 0.601 3.492 1.213 7.415C71.652 154.783 71.276 153.685 71.052 153.015zM77.631 148.405c-0.097 0.384-0.678 3.295-1.321 6.632 0.183-2.979 0.253-5.581 0.209-7.292 1.364-0.173 5.699-0.332 12.026 0.629C85.419 148.395 81.815 148.405 77.631 148.405zM122.369 148.405c-4.185 0-7.789-0.011-10.915-0.031 5.565-0.845 10.097-0.874 12.026-0.629 -0.044 1.711 0.026 4.312 0.21 7.29C123.047 151.698 122.466 148.788 122.369 148.405zM127.576 157.051c0.611-3.924 1.091-6.818 1.213-7.415 0.044 1.023 0.098 2.168 0.159 3.379C128.724 153.684 128.348 154.783 127.576 157.051zM130.509 163.165c-0.234-3.74-0.434-6.939-0.604-9.704 0.28-0.896 0.515-1.669 0.686-2.266 0.119 1 0.551 3.945 1.05 6.54 0.366-0.967 1.159-3.004 2.234-5.776C132.968 154.584 131.833 157.921 130.509 163.165z" fill="#0d0905" stroke-width="none" opacity="1" stroke="none"></path></g><g id="svga-group-humanbody-single"><path id="SvgjsPath4121" d="M195.417 199.778c-2.196-4.746-8.195-11.779-14.86-13.722 -8.239-2.403-26.837-5.308-33.733-6.923 -5.528-1.296-16.662-11.294-20.564-14.65 -0.7-0.6-1.273-1.839-1.287-2.76 -0.139-10.864 4.195-39.724 4.195-39.724H100 70.833c0 0 4.334 28.859 4.193 39.724 -0.011 0.921-0.587 2.16-1.285 2.76 -3.902 3.356-15.036 13.354-20.564 14.65 -6.897 1.615-25.495 4.619-33.733 7.022 -6.667 1.942-12.664 8.876-14.86 13.622 -3.708 8.008-4.584 22.5-4.584 35h100 100C200 222.278 199.123 207.786 195.417 199.778z" fill="#daa488" stroke-width="none" opacity="1" stroke="none"></path><path id="SvgjsPath4122" d="M159.156 184.058c24.342 3.542 34.586 8.708 37.794 50.721H200c0-12.5-0.877-26.992-4.583-35 -2.196-4.746-8.195-11.779-14.86-13.722 -8.239-2.403-26.837-5.308-33.733-6.923 -5.528-1.296-18.242-12.069-21.643-16.35 3.36 4.704 12.791 15.605 21.054 18.46C150.188 182.61 153.48 183.232 159.156 184.058zM53.766 181.244c8.263-2.854 17.693-13.756 21.054-18.46 -3.4 4.28-16.114 15.054-21.643 16.35 -6.896 1.615-25.494 4.619-33.733 7.022 -6.665 1.942-12.664 8.876-14.86 13.622 -3.706 8.008-4.583 22.5-4.583 35h3.05c3.188-41.744 13.475-47.183 37.794-50.721C46.52 183.232 49.813 182.61 53.766 181.244z" fill="#e9bfa9" stroke-width="none" opacity="1" stroke="none"></path><path id="SvgjsPath4123" d="M95.646 197.62c0 0-5.074-1.609-7.083-2.379 -10.449-4.009-44.395-6.607-44.395-6.607s35.754 1.419 43.644 2.779c-0.458-4.767-3.017-20.004-3.017-20.004s5.149 16.815 6.409 21.057C91.878 194.734 95.646 197.62 95.646 197.62zM106.445 196.278c-0.089 0.073-0.191 0.168-0.302 0.268C106.256 196.461 106.358 196.372 106.445 196.278zM95.646 197.62c0 0 2.893 2.992 4.347 3.03 1.91 0.051 4.828-2.899 6.151-4.104 -1.265 0.957-4.159 1.391-5.31 1.436C99.504 198.033 95.646 197.62 95.646 197.62zM116.664 190.101c-1.545 0.248-4.386 0.789-4.386 0.789l2.287-14.89c-0.646 3.071-4.474 16.211-8.12 20.278 1.91-1.616 6.158-2.391 8.324-2.704 10.236-1.484 10.232-1.483 41.062-4.94C155.831 188.634 126.76 188.479 116.664 190.101z" fill="#cb8b6a" stroke-width="none" opacity="1" stroke="none"></path><path id="SvgjsPath4124" d="M195.417 199.778c-2.196-4.746-8.195-11.779-14.86-13.722 -8.239-2.403-26.837-5.308-33.733-6.923 -5.528-1.296-16.662-11.294-20.564-14.65 -0.7-0.6-1.273-1.839-1.287-2.76 -0.139-10.864 4.195-39.724 4.195-39.724H100 70.833c0 0 4.334 28.859 4.193 39.724 -0.011 0.921-0.587 2.16-1.285 2.76 -3.902 3.356-15.036 13.354-20.564 14.65 -6.897 1.615-25.495 4.619-33.733 7.022 -6.667 1.942-12.664 8.876-14.86 13.622 -3.708 8.008-4.584 22.5-4.584 35h100 100C200 222.278 199.123 207.786 195.417 199.778z" fill="none" stroke="#ac5f38" stroke-width="1.5" opacity="1"></path></g><g id="svga-group-chinshadow-single"><path id="SvgjsPath4412" d="M124.253 159.292c0.209-6.588 1.387-16.822 2.44-24.934 -15.046-2.317-38.404-2.272-53.372 0.112 1.041 8.028 2.198 18.103 2.419 24.664 8.455 6.921 18.045 12.742 24.414 12.731C106.453 171.856 115.887 166.136 124.253 159.292z" fill="url(#SvgjsLinearGradient4413)" opacity="1"></path></g><g id="svga-group-clothes-single" ><path id="SvgjsPath4397" d="M197.798 201.546c-10.478-20.278-30.653-17.404-49.968-22.843 -0.468 3.585-13.251 20.479-16.287 30.061 -1.705-1.423-3.74-3.325-5.209-5.066 -7.188-8.443-17.841-35.76-21.416-14.428 0.777-9.576 5.003-11.686 10.871-3.659 6.308 8.638 6.542 13.098 15.542 22.491 1.59-6.601 5.032-11.259 9.036-17.104 3.875-5.663 6.705-8.217 7.119-13.258 -1.445-2.408-1.099-3.486-3.434-5.046 -14.655-9.912-4.192-19.97-17.476-22.365 -0.104 1.198-0.235 2.54-0.345 3.549 2.841 1.462 3.691 7.152-0.683 11.318 -6.951 7.631-18.12 8.01-21.032 19.723l-0.007-0.001c-0.927 3.477-1.669 8.799-2.021 11.919l-2.455 24.898 -2.47-24.457c-2.003-18.359-4.621-20.155-13.183-25.828 -5.673-3.76-14.943-9.433-11.917-15.847 0.345-0.742 0.765-1.198 1.286-1.541 -0.15-1.466-0.238-2.316-0.354-3.678 -10.967 0.467-9.281 15.982-17.586 21.69 -2.177 1.496-3.287 2.879-4.068 5.129 0.531 6.281 14.504 20.476 16.945 30.899 9.085-9.592 9.155-13.783 15.5-22.459 5.465-7.465 9.928-6.699 10.867 3.403 -0.516-3.035-1.738-7.681-4.386-7.681 -2.182 0-4.456 3.218-5.581 4.771 -6.299 8.678-7.311 14.885-16.647 22.633 -0.646-1.941-1.404-3.891-2.308-5.706 -3.7-7.474-13.719-22.555-14.858-24.017 -4.428 1.246-11.177 2.626-15.233 3.3 -26.504 4.411-36.778 12.969-40.685 53.031 97.202-0.984 136.811-0.556 209.21-0.556C203.66 225.907 201.881 209.46 197.798 201.546z" fill="#1e78a2" stroke-width="none" opacity="1" stroke="none"></path><path id="SvgjsPath4398" d="M139.969 190.783c-3.461 5.054-6.201 9.3-7.908 14.621 1.967-10.979 14.436-21.374 13.086-27.939 -0.578-2.812-10.526-9.081-11.041-18.4 2.745 8.538 12.992 14.632 13.009 18.723C147.142 184.482 146.942 180.595 139.969 190.783zM204.486 234.028c0.347-8.682-2.572-25.584-6.19-32.598 -10.478-20.278-31.563-17.691-50.877-23.13 -0.171 0.218 0.49 1.66 0.027 2.28C192.595 188.9 197.736 198.817 204.486 234.028zM55.812 172.075c5.547-4.597 7.21-9.05 8.483-13.011 -2.85 16.28-7.111 10.123-10.22 18.276 -1.778 4.663 12.003 17.403 13.866 28.063 -2.442-4.175-5.06-9.313-8.521-14.367 -2.694-3.937-4.41-7.537-7.079-10.567C51.069 173.756 53.696 173.829 55.812 172.075zM52.34 180.47c-0.463-0.62-0.894-1.204-1.065-1.422 -19.314 5.438-38.594 2.104-49.071 22.383 -3.619 7.014-5.426 21.363-6.423 30.064 1.929-10.573 4.804-23.893 10.963-31.929C17.188 185.399 36.46 182.665 52.34 180.47z" fill="#3389b1" stroke-width="none" opacity="1" stroke="none"></path><path id="SvgjsPath4399" d="M119.848 171.392c-4.863 2.82-8.981 5.588-11.713 9.481 6.567 0.362 11.421 12.099 12.734 13.695 -12.333-17.166-17-5.5-18.5 5.432 0.432-3.546 0.787-9.596 1.487-12.193 0.204-1.033 0.423-2.021 0.654-2.889l0.007 0.001c2.912-11.713 14.081-12.092 21.032-19.723 4.374-4.166 3.523-9.856 0.683-11.318 0.109-1.009 0.241-2.351 0.345-3.549 0.729 0.133 1.379 0.292 1.982 0.469C137.518 158.679 125.96 168.657 119.848 171.392zM78.965 171.392c4.864 2.82 10.812 6.162 13.536 9.717 -4.798-0.873-10.131 6.294-12.798 12.627 11.5-14.667 15-6.333 18.667 6.265 -0.431-3.545-1.524-9.596-2.224-12.193 -0.204-1.033-0.422-2.021-0.654-2.889l-0.006 0.001c-2.912-11.713-13.682-12.092-20.633-19.723 -4.374-4.166-3.622-9.856-0.781-11.318 -0.109-1.009-0.24-2.351-0.344-3.549 -0.729 0.133-1.379 0.292-1.982 0.469C64.238 159.967 73.472 168.06 78.965 171.392z" fill="#0c6893" stroke-width="none" opacity="1" stroke="none"></path><path id="SvgjsPath4400" d="M125.876 163.323c0.031-5.701-0.159-2.538 0.418-8.99C128.518 155.526 128.801 160.423 125.876 163.323zM74.139 162.784c-2.323-3.04-2.61-6.145-0.347-8.49C74.334 159.352 74.059 158.742 74.139 162.784z" fill="#005a83" stroke-width="none" opacity="1" stroke="none"></path><path id="SvgjsPath4401" d="M147.624 176.915c-0.206-3.542-7.813-6.496-11.188-14.175 -2.417-5.47-0.123-11.734-10.065-12.741 -0.545 3.187-1.028 10.193-0.883 13.579 -5.038 5.423-12.831 6.826-17.785 12.657 -5.288 6.224-7.58 19.7-7.667 47.667l1.232-0.801c0 0 1.372-26.485 1.382-26.563 3.084-26.427 12.888-20.185 22.979-31.263 4.521-4.332 3.441-10.072 0.722-11.463 0.118-1.12 0.228-2.229 0.325-3.35 8.552 1.571 6.109 6.605 8.784 12.753 3.556 8.174 10.297 9.959 10.732 13.923 0.69 6.281-3.058 8.947-6.817 14.434 -5.913 8.559-7.28 12.925-8.101 16.308 -8.975-9.426-8.98-13.558-15.398-22.338 -6.844-9.366-11.339-4.974-13.226 10.996 0.194-2.625 3.77-17.175 8.043-14.651 4.939 2.878 9.791 15.108 15.561 21.886 1.539 1.823 3.521 3.652 5.345 5.182 3.407-11.897 16-24.465 16.408-30.205 19.695 5.556 53.439-0.145 56.441 55.963 -41.138 0.22-85.815-0.682-208.97 0.554 1.785-18.437 4.804-36.508 15.723-44.653 4.685-3.507 10.117-5.341 15.712-6.508 7.797-1.616 16.522-2.655 24.253-4.747 0.788 1 14.205 21.198 17.224 29.597 10.863-8.503 15.207-24.459 21.188-27.214 4.164-1.913 7.559 11.938 7.753 14.553 -1.63-16.891-6.95-22.418-17.024-4.923 -4.964 8.624-6.28 10.962-11.56 16.51 -2.12-8.994-16.895-25.954-16.253-30.662 0.634-4.646 6.314-3.363 10.098-13.244 2.122-5.54 1.652-11.648 10.708-13.455 0.098 1.167 0.217 2.32 0.336 3.486 -2.479 1.631-3.109 7.111 0.852 10.942 3.567 4.085 10.004 6.416 14.255 9.676 5.011 3.867 6.993 7.827 8.588 21.67 0.035 0.302 1.37 26.942 1.37 26.942l1.333 0.667c-0.667-27.833-3.335-44.568-8.721-49.258 -4.652-4.15-12.775-6.796-16.717-11.429 0.12-3.476-0.565-10.518-0.993-13.171 -9.009 0.918-9.264 6.638-11.196 11.632 -5.165 13.351-10.134 9.527-10.957 15.059 -0.077 0.517 0.042 0.906 0.167 1.594 -7.58 1.548-17.04 2.563-24.641 3.953 -11.343 2.071-22.045 8.058-26.925 19.452 -3.707 8.647-4.781 24.051-5.053 33.543 -0.011 0.068-0.011 0.147-0.011 0.215 0.152 0.012 0.314 0.012 0.466 0.012 130.475 1.387 208.449-0.578 209.534-0.578C205.369 181.568 176.202 183.902 147.624 176.915zM125.976 163.024c0.016-2.933 0.105-6.329 0.318-8.691C127.892 155.473 129.133 159.262 125.976 163.024zM74.088 162.593c-2.652-3.471-1.6-6.836-0.396-8C73.943 156.939 74.042 160.224 74.088 162.593z" fill="#004f74" stroke-width="none" opacity="1" stroke="none"></path></g><g id="svga-group-head" ><g id="svga-group-ears-left" ><path id="SvgjsPath4392" d="M45.443 82.722c-1.469-2.433-6.648-7.545-10.31-6.61 -2.979 0.762-6.032 3.243-6.032 7.473 -0.001 6.553 1.496 9.338 2.501 12.311 0.856 2.53 3.915 7.167 5.761 8.964 2.273 2.208 5.957 9.35 6.404 10.079 0.705 1.154 1.877 2.988 4.043 3.057 3.29 0.104 7.085-2.105 7.323-3.488C56.42 107.009 49.263 89.052 45.443 82.722z" fill="#daa488" stroke="#ac5f38" stroke-width="1.5" opacity="1"></path><path id="SvgjsPath4393" d="M43.596 99.086c-0.142-0.558 0.007-1.495 0.152-2.4 0.131-0.826 0.255-1.605 0.18-2.157 -0.285-2.064-1.892-5.988-2.942-8.115 -1.208-2.446-4.117-5.528-6.568-6.322 -1.013-0.329-1.681 0.064-2.067 0.463 -0.284 0.293-0.347 0.637-0.254 0.678 0.093 0.041 0.304-0.244 0.61-0.513 0.25-0.22 0.617-0.408 1.122-0.369 -0.203 1.028-3.138 4.222-1.381 10.392 0.822 2.888 1.992 5.214 2.202 5.549 0.032 0.352 0.083 0.696 0.159 1.031 0.991 4.357 7.286 11.54 8.785 13.162 0.277 0.3 0.567 0.477 0.639 0.406 0.072-0.072-0.1-0.368-0.376-0.671 -1.48-1.611-7.734-8.777-8.69-12.981 -1.754-7.702 1.916-7.832 4.499-12.473 0.397 0.657 0.733 1.288 0.993 1.814 0.203 0.413 0.429 0.896 0.661 1.417 -0.458 0.729-5.059 6.055-3.889 10.317 0.433 1.572 3.779 3.598 5.073 4.153 0.712 0.306 0.979 0.763 1.289 1.291 0.359 0.613 0.767 2.796 1.95 3.298 0.241 0.103 0.458 0.146 0.651 0.146 0.334 0 0.587-0.128 0.774-0.28 0.019 0.267 0.018 0.612 0.008 0.93 -0.011 0.411 0.046 0.748 0.147 0.756s0.208-0.317 0.221-0.727c0.016-0.504 0.014-1.128-0.077-1.426 -0.265-0.88-1.076-1.871-1.934-2.921C44.688 102.503 43.815 99.947 43.596 99.086zM34.616 95.223c-2.322-6.84 0.993-12.744 1.514-13.684 0.908 0.787 2.662 1.841 3.314 2.87C36.33 89.804 34.811 86.051 34.616 95.223zM45.884 106.717c-1.072-0.455-1.431-2.555-1.778-3.147 -0.314-0.536-0.639-1.089-1.461-1.443 -0.179-0.077-0.376-0.194-0.578-0.328 -3.861-5.758 0.291-8.626 1.027-9.163 0.226 0.734 0.396 1.407 0.47 1.946 0.068 0.496-0.058 1.284-0.179 2.045 -0.15 0.944-0.306 1.92-0.145 2.553 0.24 0.941 1.14 3.529 2.01 4.594 0.772 0.945 1.564 1.919 1.835 2.713C46.97 106.645 46.604 107.022 45.884 106.717z" fill="#ac5f38" stroke-width="none" opacity="1" stroke="none"></path></g><g id="svga-group-ears-right" ><path id="SvgjsPath4394" d="M154.295 82.722c1.469-2.433 6.648-7.545 10.311-6.61 2.979 0.762 6.031 3.243 6.031 7.473 0.002 6.553-1.496 9.338-2.5 12.311 -0.857 2.53-3.916 7.167-5.762 8.964 -2.273 2.208-5.957 9.35-6.404 10.079 -0.705 1.154-1.877 2.988-4.043 3.057 -3.291 0.104-7.086-2.105-7.324-3.488C143.318 107.009 150.475 89.052 154.295 82.722z" fill="#daa488" stroke="#ac5f38" stroke-width="1.5" opacity="1"></path><path id="SvgjsPath4395" d="M154.205 103.536c-0.857 1.05-1.668 2.041-1.934 2.921 -0.09 0.298-0.092 0.922-0.076 1.426 0.014 0.409 0.119 0.734 0.221 0.727s0.158-0.345 0.146-0.756c-0.01-0.317-0.01-0.663 0.01-0.93 0.186 0.152 0.439 0.28 0.773 0.28 0.193 0 0.41-0.043 0.65-0.146 1.184-0.502 1.592-2.686 1.951-3.298 0.311-0.528 0.576-0.985 1.289-1.291 1.293-0.555 4.639-2.581 5.072-4.153 1.17-4.262-3.432-9.588-3.889-10.317 0.232-0.522 0.457-1.004 0.66-1.417 0.26-0.526 0.596-1.157 0.994-1.814 2.582 4.641 6.252 4.771 4.498 12.473 -0.957 4.204-7.209 11.37-8.689 12.981 -0.275 0.303-0.447 0.599-0.377 0.671 0.072 0.07 0.361-0.106 0.639-0.406 1.5-1.622 7.795-8.805 8.785-13.162 0.076-0.334 0.129-0.679 0.16-1.031 0.209-0.334 1.379-2.661 2.201-5.549 1.758-6.17-1.178-9.364-1.381-10.392 0.504-0.039 0.871 0.149 1.123 0.369 0.305 0.269 0.518 0.553 0.609 0.513 0.094-0.041 0.029-0.385-0.254-0.678 -0.387-0.399-1.055-0.792-2.068-0.463 -2.451 0.794-5.359 3.876-6.568 6.322 -1.049 2.126-2.656 6.05-2.941 8.115 -0.074 0.552 0.049 1.331 0.18 2.157 0.145 0.906 0.293 1.843 0.152 2.4C155.924 99.947 155.051 102.503 154.205 103.536zM160.295 84.409c0.652-1.029 2.406-2.083 3.313-2.87 0.521 0.939 3.836 6.843 1.516 13.684C164.928 86.051 163.408 89.804 160.295 84.409zM152.652 106.486c0.271-0.794 1.064-1.768 1.836-2.713 0.869-1.065 1.77-3.653 2.01-4.594 0.16-0.632 0.006-1.608-0.145-2.553 -0.121-0.761-0.248-1.55-0.18-2.045 0.074-0.539 0.244-1.212 0.471-1.946 0.734 0.537 4.887 3.405 1.025 9.163 -0.201 0.134-0.398 0.251-0.578 0.328 -0.822 0.354-1.146 0.908-1.461 1.443 -0.346 0.592-0.705 2.692-1.777 3.147C153.135 107.022 152.768 106.645 152.652 106.486z" fill="#ac5f38" stroke-width="none" opacity="1" stroke="none"></path></g><g id="svga-group-faceshape-wrap" ><g id="svga-group-faceshape-single" ><path id="SvgjsPath4409" d="M158.918 78.006l-0.005 0c-0.012 0.054-9.983 41.375-18.186 54.159 -6.452 10.056-28.899 29.684-40.573 29.701 -11.671 0.021-34.17-19.539-40.652-29.576 -8.242-12.758-18.353-54.042-18.365-54.096h-0.001c-1.298-4.992-1.994-10.231-2.002-15.634C39.082 28.536 66.289 0.92 99.907 0.867c33.621-0.053 60.913 27.476 60.963 61.499C160.879 67.769 160.201 73.01 158.918 78.006z" fill="#daa488" stroke-width="none" opacity="1"></path><path id="SvgjsPath4410" d="M124.597 6.119c18.568 10.001 31.371 30.966 31.404 55.247 0.008 5.403-0.616 10.644-1.796 15.641l-0.005 0c-0.011 0.054-9.185 41.375-16.73 54.159 -5.937 10.056-26.588 29.684-37.327 29.701 -10.737 0.021-31.437-19.539-37.4-29.576 -7.582-12.758-16.885-54.042-16.896-54.096h-0.001c-1.195-4.992-1.835-10.231-1.842-15.634C43.969 37.217 56.775 16.161 75.391 6.126 54.006 15.706 39.096 37.37 39.134 62.56c0.008 5.403 0.704 10.643 2.002 15.634h0.001c0.012 0.054 10.123 41.338 18.365 54.096 6.482 10.037 28.981 29.597 40.652 29.576 11.673-0.018 34.121-19.646 40.573-29.701 8.202-12.784 18.174-54.105 18.186-54.159l0.005 0c1.283-4.997 1.961-10.237 1.952-15.641C160.833 37.238 145.928 15.667 124.597 6.119z" fill="#d29779" stroke-width="none" opacity="1"></path><path id="SvgjsPath4411" d="M158.918 78.006l-0.005 0c-0.012 0.054-9.983 41.375-18.186 54.159 -6.452 10.056-28.899 29.684-40.573 29.701 -11.671 0.021-34.17-19.539-40.652-29.576 -8.242-12.758-18.353-54.042-18.365-54.096h-0.001c-1.298-4.992-1.994-10.231-2.002-15.634C39.082 28.536 66.289 0.92 99.907 0.867c33.621-0.053 60.913 27.476 60.963 61.499C160.879 67.769 160.201 73.01 158.918 78.006z" fill="none" stroke="#ac5f38" stroke-width="1.5" opacity="1"></path></g></g><g id="svga-group-mouth-single" ><path id="SvgjsPath4385" d="M99.983 141.177c-3.24 0-4.753-3.8-4.753-3.8s4.826 0.199 9.279 0.933C104.509 138.31 102.832 141.177 99.983 141.177z" fill="url(#SvgjsLinearGradient4386)" opacity="1"></path><path id="SvgjsPath4389" d="M87.792 135.571c-0.373-0.33 1.528-3.373 3.926-4.045 3.031-0.882 5.759 0.026 7.991 0.413 2.034 0.354 5.041 0.049 7.028 0.579 2.249 0.6 8.464 3.283 7.981 3.8 -0.238 0.255-4.963-1.676-8.076-2.278 -1.98-0.384-4.881-0.086-6.874-0.413 -2.062-0.337-4.47-1.21-7.268-0.805C89.962 133.189 88.217 135.947 87.792 135.571z" fill="#ac5f38" stroke-width="none" opacity="1" stroke="none"></path></g><g id="svga-group-eyes-left" ><g id="svga-group-eyesback-left"><path id="SvgjsPath4306" d="M78.863 89.23c-4.31 0.755-7.656 0.71-10.688-0.204 -3.127-0.943-7.188-4.825-8.596-8.495 3.715-0.277 11.349-0.597 14.89-0.154 4.688 0.586 9.474 2.406 12.305 5.236 -0.016 0.294-0.053 0.583-0.087 0.872C84.401 88.032 81.166 88.826 78.863 89.23z" fill="url(#SvgjsRadialGradient4307)" opacity="1"></path></g><g id="svga-group-eyesiriswrapper-left" transform="translate(0.25 0.25)"><g id="svga-group-eyesiriscontrol-left" ><g id="svga-group-eyesiris-left" ><path id="SvgjsPath4364" d="M80 84c0 3.313-2.687 5.999-6 5.999S68 87.313 68 84c0-3.316 2.687-6.001 6-6.001S80 80.685 80 84z" fill="#9fae70" stroke-width="none" opacity="1" stroke="none"></path><path id="SvgjsPath4365" d="M70.512 86.805c0.875-0.072 0.1-0.306 0.1-0.306 -0.433-0.233-1.248-0.592-1.248-0.921 0-1.031 1.414-1.299-0.034-1.705 -1.504-1.38 1.167-1.352 1.147-1.398 -0.975-2.376 0.299-1.071 0.835-1.773 1.988-2.599 0.554 0.267 1.633 0 0.391-0.096-0.78-1.531 0.034-1.33 0.539 0.132 0.662 0.58 0.662 0.58 0.393-0.077 1.008-0.682 1.008-0.682 0.749 0.226 1.275 1.29 1.043 1.091 0.368-0.045 0.884-0.221 1.286-0.341 0 0 0.07-0.239 0.139-0.033 0.917 2.661 3.284 2.47 0.559 3.24 0 0-0.176 0 0.382 0.442 2.71 2.164-2.102 1.495 0.451 2.49 0.104-0.104-1.53 0.965-1.53 1.261 0 0.501-1.042 1.818-1.946 1.3 -0.504-0.288-0.581 0.6-0.877 0.19 -0.581-0.803-1.742-0.035-1.313-0.773 0.634-0.521-0.654 0.204-0.904 0.204 -0.828 0 1.083-2.783 3.894-0.715 0.822 0.602-0.864-1.433 0.625-1.433 0.149 0.049 0.104-0.521 0.104-0.682 -0.774-0.151 1.39-0.003 1.39-1.262 0.137 0.027 0.509-0.35-1.635 0 0 0-0.068-0.75-0.034-0.886 0.11-0.438 1.214-0.298 0.904-0.75 0-0.001-0.799-1.604-0.799-1.604 -2.573-0.414-1.102-0.672-2.711-0.341 -0.076 0.378-3.445 1.984-3.338 2.729 0.1 0.702 2.115 0.938 0.208 2.182C73.405 91.051 68.437 85.454 70.512 86.805z" fill="#b2bd8d" stroke-width="none" opacity="1" stroke="none"></path><path id="SvgjsPath4366" d="M74 78.749l0.171 4.393 1.837-3.993 -1.523 4.123 3.227-2.985 -2.985 3.226 4.124-1.523 -3.992 1.839 4.392 0.17 -4.392 0.17 3.992 1.839 -4.124-1.523 2.985 3.226 -3.227-2.985 1.523 4.123 -1.837-3.993L74 89.249l-0.171-4.393 -1.838 3.993 1.522-4.123 -3.226 2.985 2.985-3.226 -4.124 1.523 3.992-1.839 -4.39-0.17 4.39-0.17 -3.992-1.839 4.124 1.523 -2.985-3.226 3.226 2.985 -1.522-4.123 1.838 3.993L74 78.749z" fill="#7c8f40" stroke-width="none" opacity="1" stroke="none"></path><path id="SvgjsPath4367" d="M74.796 80.067l-0.539 3.315 1.981-2.711 -1.766 2.857 2.87-1.748 -2.725 1.964 3.319-0.515L74.668 84l3.266 0.794 -3.317-0.538 2.712 1.982 -2.858-1.765 1.748 2.869 -1.964-2.725 0.516 3.319 -0.771-3.27 -0.795 3.264 0.539-3.315 -1.984 2.711 1.768-2.857 -2.869 1.748 2.725-1.964 -3.319 0.516 3.269-0.771 -3.264-0.793 3.315 0.537 -2.712-1.982 2.858 1.765 -1.747-2.869 1.964 2.725 -0.516-3.318 0.772 3.27L74.796 80.067z" fill="#6c802c" stroke-width="none" opacity="1" stroke="none"></path><path id="SvgjsPath4368" d="M76.25 84c0 1.243-1.008 2.25-2.25 2.25s-2.25-1.007-2.25-2.25 1.008-2.25 2.25-2.25S76.25 82.757 76.25 84z" fill="#000000" stroke-width="none" opacity="0.9"></path><path id="SvgjsPath4369" d="M71.637 88.311c-0.331 0.332-0.985 0.215-1.46-0.261 -0.476-0.475-0.593-1.129-0.261-1.461 0.331-0.331 0.985-0.214 1.46 0.261C71.852 87.326 71.969 87.979 71.637 88.311z" fill="#ffffff" stroke-width="none" opacity="0.7"></path><path id="SvgjsPath4370" d="M78.806 82.818c-0.496 0.496-1.697 0.1-2.682-0.886 -0.986-0.986-1.382-2.187-0.886-2.683 0.496-0.496 1.697-0.1 2.682 0.886C78.906 81.122 79.302 82.322 78.806 82.818z" fill="#ffffff" stroke-width="none" opacity="0.9"></path></g></g></g><g id="svga-group-eyesfront-left"><path id="SvgjsPath4331" d="M55.8 85.001c0 13.808 8.06 24.999 18 24.999s18-11.191 18-24.999C91.8 71.192 83.74 60 73.8 60S55.8 71.192 55.8 85.001zM59.58 80.531c3.715-0.277 11.349-0.597 14.89-0.154 4.952 0.619 10.04 2.6 12.788 5.71 -2.289 1.82-5.897 2.705-8.395 3.143 -4.31 0.755-7.656 0.71-10.688-0.204C65.049 88.083 60.988 84.201 59.58 80.531z" fill="#daa488" stroke-width="none" opacity="1" stroke="none"></path><path id="SvgjsPath4332" d="M55.942 83.916c0.027 8.284 8.484 14.962 18.902 14.919 10.414-0.047 18.836-6.796 18.813-15.08 -0.027-8.285-8.486-14.963-18.902-14.92C64.339 68.882 55.919 75.631 55.942 83.916zM59.58 80.531c3.715-0.277 11.349-0.597 14.89-0.154 4.952 0.619 10.04 2.6 12.788 5.71 -2.289 1.82-5.897 2.705-8.395 3.143 -4.31 0.755-7.656 0.71-10.688-0.204C65.049 88.083 60.988 84.201 59.58 80.531z" fill="url(#SvgjsRadialGradient4333)" opacity="1"></path><path id="SvgjsPath4337" d="M59.58 80.531c3.715-0.277 11.349-0.597 14.89-0.154 4.952 0.619 10.04 2.6 12.788 5.71 -2.289 1.82-5.897 2.705-8.395 3.143 -4.31 0.755-7.656 0.71-10.688-0.204C65.049 88.083 60.988 84.201 59.58 80.531z" fill="url(#SvgjsRadialGradient4338)" opacity="1"></path><path id="SvgjsPath4341" d="M67.563 77.096c10.603-0.48 13.849 1.478 18.339 4.3C78.442 77.023 69.03 77.042 67.563 77.096zM59.597 84.153c2.854 5.494 4.797 4.894 7.531 6.058 0.025 0.009-1.51-0.579-2.664-1.196C61.474 87.296 61.108 86.564 59.597 84.153z" fill="#ac5f38" stroke-width="none" opacity="1" stroke="none"></path><path id="SvgjsPath4342" d="M58.468 79.966c2.857 5.992 4.761 9.926 14.332 10.071 7.283 0.109 11.794-0.564 15.584-3.374 -3.395-5.194-7.754-6.771-13.57-7.358C68.915 78.709 58.468 79.966 58.468 79.966zM60.505 80.827c3.467-0.258 10.59-0.557 13.895-0.144 4.621 0.577 9.369 2.426 11.934 5.328 -2.137 1.699-5.504 2.524-7.834 2.933 -4.021 0.705-7.145 0.663-9.973-0.19C65.608 87.875 61.819 84.252 60.505 80.827z" fill="#782c76" stroke-width="none" opacity="1" stroke="none"></path></g></g><g id="svga-group-eyes-right" ><g id="svga-group-eyesback-right"><path id="SvgjsPath4314" d="M120.737 89.23c4.31 0.755 7.656 0.71 10.688-0.204 3.127-0.943 7.188-4.825 8.596-8.495 -3.715-0.277-11.349-0.597-14.89-0.154 -4.688 0.586-9.474 2.406-12.305 5.236 0.016 0.294 0.053 0.583 0.087 0.872C115.199 88.032 118.435 88.826 120.737 89.23z" fill="url(#SvgjsRadialGradient4315)" opacity="1"></path></g><g id="svga-group-eyesiriswrapper-right" transform="translate(-0.25 0.25)"><g id="svga-group-eyesiriscontrol-right" ><g id="svga-group-eyesiris-right" ><path id="SvgjsPath4371" d="M132,83.999c0,3.316-2.684,6-6,6s-6-2.684-6-6s2.684-6,6-6S132,80.683,132,83.999z" fill="#9fae70" stroke-width="none" opacity="1" stroke="none"></path><path id="SvgjsPath4372" d="M122.508 86.806c0.879-0.076 0.105-0.305 0.105-0.305 -0.434-0.234-1.254-0.592-1.254-0.926 0-1.031 1.418-1.295-0.023-1.705 -1.512-1.377 1.16-1.348 1.137-1.395 -0.973-2.379 0.305-1.072 0.844-1.775 1.98-2.596 0.551 0.27 1.629 0 0.387-0.094-0.785-1.529 0.035-1.33 0.539 0.135 0.656 0.58 0.656 0.58 0.398-0.076 1.008-0.68 1.008-0.68 0.75 0.223 1.277 1.289 1.043 1.09 0.375-0.047 0.891-0.223 1.289-0.34 0 0 0.07-0.24 0.141-0.035 0.914 2.66 3.281 2.473 0.563 3.24 0 0-0.176 0 0.375 0.439 2.707 2.168-2.098 1.494 0.457 2.49 0.105-0.1-1.535 0.967-1.535 1.266 0 0.498-1.043 1.816-1.945 1.295 -0.504-0.287-0.586 0.604-0.879 0.193 -0.574-0.803-1.746-0.035-1.313-0.773 0.633-0.521-0.656 0.205-0.902 0.205 -0.832 0 1.078-2.783 3.891-0.715 0.82 0.598-0.867-1.436 0.633-1.436 0.141 0.047 0.105-0.521 0.105-0.68 -0.785-0.152 1.383-0.006 1.383-1.266 0.141 0.029 0.516-0.346-1.629 0 0 0-0.07-0.75-0.035-0.885 0.105-0.439 1.207-0.299 0.902-0.75l-0.797-1.605c-2.578-0.41-1.102-0.668-2.719-0.34 -0.07 0.381-3.445 1.986-3.34 2.73 0.105 0.703 2.121 0.938 0.211 2.18C125.402 91.054 120.434 85.452 122.508 86.806z" fill="#b2bd8d" stroke-width="none" opacity="1" stroke="none"></path><path id="SvgjsPath4373" d="M126 78.749l0.176 4.395 1.828-3.996 -1.523 4.125 3.234-2.988 -2.988 3.229 4.125-1.523 -3.996 1.84 4.395 0.17 -4.395 0.17 3.996 1.84 -4.125-1.523 2.988 3.229 -3.234-2.988 1.523 4.125 -1.828-3.996L126 89.249l-0.176-4.395 -1.84 3.996 1.523-4.125 -3.223 2.988 2.988-3.229 -4.125 1.523 3.996-1.84 -4.395-0.17 4.395-0.17 -3.996-1.84 4.125 1.523 -2.988-3.229 3.223 2.988 -1.523-4.125 1.84 3.996L126 78.749z" fill="#7c8f40" stroke-width="none" opacity="1" stroke="none"></path><path id="SvgjsPath4374" d="M126.797 80.067l-0.539 3.316 1.98-2.713 -1.77 2.859 2.871-1.752 -2.719 1.969 3.316-0.516 -3.27 0.768 3.27 0.797 -3.316-0.539 2.707 1.98 -2.859-1.764 1.746 2.871 -1.957-2.725 0.516 3.316L126 84.667l-0.797 3.264 0.539-3.316 -1.98 2.713 1.77-2.859 -2.871 1.752 2.719-1.969 -3.316 0.516 3.27-0.768 -3.27-0.797 3.316 0.539 -2.707-1.98 2.859 1.764 -1.746-2.871 1.957 2.725 -0.516-3.316 0.773 3.27L126.797 80.067z" fill="#6c802c" stroke-width="none" opacity="1" stroke="none"></path><path id="SvgjsPath4375" d="M128.25 83.999c0 1.242-1.008 2.25-2.25 2.25s-2.25-1.008-2.25-2.25 1.008-2.25 2.25-2.25S128.25 82.757 128.25 83.999z" fill="#000000" stroke-width="none" opacity="0.9"></path><path id="SvgjsPath4376" d="M123.633 88.312c-0.328 0.328-0.984 0.217-1.453-0.264 -0.48-0.475-0.598-1.125-0.258-1.459 0.328-0.328 0.984-0.211 1.453 0.264C123.855 87.327 123.973 87.978 123.633 88.312z" fill="#ffffff" stroke-width="none" opacity="0.7"></path><path id="SvgjsPath4377" d="M130.805 82.815c-0.492 0.498-1.699 0.105-2.684-0.885 -0.984-0.984-1.383-2.186-0.879-2.678 0.492-0.498 1.688-0.105 2.672 0.885C130.91 81.122 131.297 82.323 130.805 82.815z" fill="#ffffff" stroke-width="none" opacity="0.9"></path></g></g></g><g id="svga-group-eyesfront-right"><path id="SvgjsPath4352" d="M125.801 60c-9.94 0-18 11.193-18 25.001 0 13.808 8.06 24.999 18 24.999s18-11.191 18-24.999C143.801 71.192 135.741 60 125.801 60zM131.425 89.026c-3.031 0.914-6.378 0.959-10.688 0.204 -2.497-0.438-6.105-1.323-8.395-3.143 2.748-3.11 7.836-5.091 12.788-5.71 3.541-0.443 11.175-0.123 14.89 0.154C138.612 84.201 134.552 88.083 131.425 89.026z" fill="#daa488" stroke-width="none" opacity="1" stroke="none"></path><path id="SvgjsPath4353" d="M124.846 68.835c-10.416-0.043-18.875 6.635-18.902 14.92 -0.023 8.284 8.398 15.033 18.813 15.08 10.418 0.043 18.875-6.635 18.902-14.919C143.682 75.631 135.262 68.882 124.846 68.835zM131.425 89.026c-3.031 0.914-6.378 0.959-10.688 0.204 -2.497-0.438-6.105-1.323-8.395-3.143 2.748-3.11 7.836-5.091 12.788-5.71 3.541-0.443 11.175-0.123 14.89 0.154C138.612 84.201 134.552 88.083 131.425 89.026z" fill="url(#SvgjsRadialGradient4354)" opacity="1"></path><path id="SvgjsPath4358" d="M140.021 80.531c-3.715-0.277-11.349-0.597-14.89-0.154 -4.952 0.619-10.04 2.6-12.788 5.71 2.289 1.82 5.897 2.705 8.395 3.143 4.31 0.755 7.656 0.71 10.688-0.204C134.552 88.083 138.612 84.201 140.021 80.531z" fill="url(#SvgjsRadialGradient4359)" opacity="1"></path><path id="SvgjsPath4362" d="M113.697 81.396c4.491-2.822 7.736-4.781 18.34-4.3C130.57 77.042 121.158 77.023 113.697 81.396zM135.137 89.016c-1.154 0.617-2.689 1.205-2.664 1.196 2.734-1.164 4.678-0.564 7.531-6.058C138.492 86.564 138.127 87.296 135.137 89.016z" fill="#ac5f38" stroke-width="none" opacity="1" stroke="none"></path><path id="SvgjsPath4363" d="M124.787 79.305c-5.816 0.587-10.176 2.165-13.57 7.358 3.79 2.809 8.301 3.483 15.584 3.374 9.57-0.145 11.474-4.079 14.331-10.071C141.132 79.966 130.686 78.709 124.787 79.305zM131.074 88.754c-2.828 0.853-5.951 0.895-9.973 0.19 -2.33-0.409-5.697-1.234-7.834-2.933 2.564-2.902 7.313-4.751 11.934-5.328 3.305-0.413 10.428-0.114 13.895 0.144C137.781 84.252 133.992 87.875 131.074 88.754z" fill="#782c76" stroke-width="none" opacity="1" stroke="none"></path></g></g><g id="svga-group-facehighlight-single" ><path id="SvgjsPath4113" d="M141 113.974c0.035 22.622-18.292 40.994-40.938 41.025 -22.642 0.037-41.028-18.273-41.063-40.9 -0.035-22.62 18.292-41.064 40.937-41.1C122.579 72.964 140.967 91.349 141 113.974z" fill="url(#SvgjsRadialGradient4114)" opacity="1"></path><path id="SvgjsPath4117" d="M137.5 53.999c0 20.711-16.789 37.5-37.499 37.5 -20.711 0-37.501-16.789-37.501-37.5s16.79-37.5 37.501-37.5C120.711 16.499 137.5 33.288 137.5 53.999z" fill="url(#SvgjsRadialGradient4118)" opacity="1"></path></g><g id="svga-group-eyebrows-left" ><path id="SvgjsPath4378" d="M54.964 78c3.142-11.595 35.115-1.16 36.543-11.207 0.047-1.179-0.552-1.884-2.627-0.392C83.26 71.17 56.139 65.69 54.964 78z" fill="#3b3128" stroke-width="none" opacity="1" stroke="none"></path></g><g id="svga-group-eyebrows-right" ><path id="SvgjsPath4379" d="M145.036 78c-3.181-11.738-35.1-1.047-36.543-11.207 -0.047-1.179 0.553-1.884 2.627-0.392C116.737 71.168 143.861 65.699 145.036 78z" fill="#3b3128" stroke-width="none" opacity="1" stroke="none"></path></g><g id="svga-group-nose-single" ><path id="SvgjsPath4390" d="M100.729 120.838c-0.354 0.161-1.185 0.161-1.448-0.103 0 0-6.296-2.153-5.498-4.215 1.264-3.262 12.727-0.761 12.717 0C106.475 118.462 100.729 120.838 100.729 120.838z" fill="#cb8b6a" stroke-width="none" opacity="1" stroke="none"></path><path id="SvgjsPath4391" d="M92.215 113.609c0 0 5.448-18.624 6.008-22.61 1.063 6.47-1.503 20.873-1.774 23.812 -0.329 3.569 3.455 5.688 3.455 5.688 0.293 0.371-0.061 0.602-0.516 0.456l-6.631-2.559C91.186 117.061 91.186 115.79 92.215 113.609zM103.176 116.911c0.915 0.207 1.106 0.576 1.035 0.957 -0.069 0.385-0.462 0.911-1.288 0.43 -0.907-0.526-2.619-0.767-2.619-0.767S102.261 116.701 103.176 116.911z" fill="#ac5f38" stroke-width="none" opacity="1" stroke="none"></path></g><g id="svga-group-beardwrap" ><g id="svga-group-beard-single" ><path id="SvgjsPath4131" d="M100,18.13L100,18.13L100,18.13L100,18.13z" fill="#f0c7b1" stroke-width="none" opacity="1" stroke="none"></path></g></g><g id="svga-group-mustache-single" ><path id="SvgjsPath4287" d="M98.99 124.17c0.01 0.19-0.1 0.38-0.28 0.48 -9.74 5.15-14.53 4.31-15.16 9.65 -2.17 18.39 0.83 48.47 1.45 55.73 -0.25-0.1-0.28-0.22-0.3-0.35 -7.95-49.44-9.83-59.39-0.04-63.69 4.01-1.76 8.59-2.84 13.33-2.96 0.52-0.01 0.96 0.36 0.99 0.84C98.97 123.98 98.98 124.08 98.99 124.17zM101.01 124.17c-0.01 0.19 0.1 0.38 0.28 0.48 9.74 5.15 14.53 4.31 15.16 9.65 2.17 18.39-0.83 48.47-1.45 55.73 0.25-0.1 0.28-0.22 0.3-0.35 7.95-49.44 9.83-59.39 0.04-63.69 -4.01-1.76-8.59-2.84-13.33-2.96 -0.52-0.01-0.96 0.36-0.99 0.84C101.03 123.98 101.02 124.08 101.01 124.17z" fill="#3b3128" stroke-width="none" opacity="1" stroke="none"></path><path id="SvgjsPath4288" d="M80.2 143.87c0.25-12.29 0.84-15.79 16.23-19.33 -4.94 1.45-12.99 4.08-14.35 8.87 0 0-2.47 12.22-0.97 27.28C80.65 158.07 80.02 150.01 80.2 143.87zM79.1 145.24c0 0 0.02-1.54 0.06-3.54 0.19-11.14 2.87-12.24 2.87-12.24 1.86-1.61 5.77-3.82 9.61-4.44 -4.06 0.4-8.09 2.53-9.93 4.13 0 0-3.24 1.9-2.79 12.53C79.02 143.68 79.1 145.24 79.1 145.24zM118.88 160.69c1.5-15.06-0.97-27.28-0.97-27.28 -1.36-4.8-9.41-7.42-14.35-8.87 15.4 3.54 15.99 7.04 16.23 19.33C119.98 150.01 119.35 158.07 118.88 160.69zM121.08 141.68c0.45-10.64-2.79-12.53-2.79-12.53 -1.84-1.6-5.87-3.72-9.93-4.13 3.84 0.63 7.74 2.83 9.61 4.44 0 0 2.68 1.1 2.87 12.24 0.03 2 0.06 3.54 0.06 3.54S120.98 143.68 121.08 141.68z" fill="#2c2219" stroke-width="none" opacity="1" stroke="none"></path><path id="SvgjsPath4289" d="M82.35 158.54c-0.92-20.09-0.27-25.67 3.71-28.46 6.49-4.55 14-4.6 12.68-6.61 -0.29-0.46-0.68-0.44-0.66-0.43 -0.02-0.01 0.37-0.05 0.69 0.41 0.38 0.53 0.25 1.06-0.26 1.37 -16.62 8.78-17.79-2.76-13.52 65.22C84.21 183.8 82.78 167.86 82.35 158.54zM117.65 158.54c0.91-20.09 0.27-25.67-3.71-28.46 -6.49-4.55-14-4.6-12.68-6.61 0.29-0.46 0.68-0.44 0.66-0.43 0.02-0.01-0.37-0.05-0.69 0.41 -0.38 0.53-0.25 1.06 0.26 1.37 16.62 8.78 17.79-2.76 13.52 65.22C115.79 183.8 117.22 167.86 117.65 158.54z" fill="#0d0905" stroke-width="none" opacity="1" stroke="none"></path></g><g id="svga-group-hair-front" ><path id="SvgjsPath4282" d="M81.229 37.267c12.868-1.984 19.271-3.835 26.7-2.011 17.444-4.256 44.396 12.821 44.058 12.472L141.505 9.063 88.143 6.881 81.229 37.267z" fill="#1c150e" stroke-width="none" opacity="1" stroke="none"></path><path id="SvgjsPath4283" d="M50.214 85.807c2.957 4.436 8.314 11.276 12.339 14.709 -2.166-5.199-11.455-39.957-5.884-58.116 6.415 19.058 17.901 30.843 28.959 35.166C90.152 84 96.677 90.884 102.587 95.204c-3.693-7.418-14.389-22.06-13.441-31.808 6.019 10.762 17.187 23.032 22.754 24.513C94.746 59.06 87.155 30.495 98.25 19.439c3.388 2.466 7.684 11.057 9.76 16.067 3.816-6.809 15.501-21.191 21.898-17.104 3.72 0.333 4.728 10.728 7.586 22.708 4.045 16.953 10.875 32.875-4.194 59.398 11.119-7.509 12.444-18.398 15.07-22.79 4.999 10.392-18.126 49.618-21.001 53.267C141.619 122.75 151.022 102.456 154 95c13.552-33.93 9.558-52.597 1.728-83.436 -7.896-9.581-18.07-17.045-29.498-21.929 -19.196-8.478-46.619-8.019-66.12-0.95 -23.241 8.537-45.426 35.3-44.1 59.82 0.534-2.312 1.689-7.771 3.347-10.7 4.39-7.421 7.084-12.414 19.143-22.311 -4.311 7.94-9.086 17.787-11.97 26.22 -0.379 1.2-0.099-0.002-0.92 3.19 -4.831 19.61-4.502 36.043 4.05 57.6 0-0.617-0.12-5.095-0.21-6.84 -0.829-30.82-3.078-26.765 4.546-46.484 -1.788 11.785-5.229 15.159 3.954 54.514 2.669 11.057 7.916 20.029 9.11 21.63 2.258 3.269 11.117 15.923 14.49 20.58 -0.205-0.998-3.327-14.442-3.46-15.01 0.075 0.201 0.149 0.398 0.224 0.6C54.358 117.327 49.203 101.373 50.214 85.807z" fill="#3b3128" stroke-width="none" opacity="1" stroke="none"></path><path id="SvgjsPath4284" d="M155.728 11.564c-1.649-2.001-3.403-3.904-5.241-5.716 11.457 21.016 11.061 63.695 0.934 85.15 7.038-29.279 4.398-51.764-3.538-68.978 1.987 16.464 2.237 31.978-1.69 49.464 -1.172-27.563-6.817-57.424-16.322-59.923 -10.977-2.886-15.539 8.058-20.769 13.673 -0.173-8.436-7.063-13.397-11.004-11.641 -9.891 4.408-8.668 29.141-6.553 40.405 -8.174-20.514-3.401-27.292-2.115-43.828 -13 15-12.089 31.694-7.428 48.829 -11-19-8-43 7-59C67.229 10.592 59.735 34.63 70.185 59.893 58.097 42.439 64.788 21.31 67.229 3.625 52.156 34.975 45.806 45.856 50.778 77c-13.436-30.542 1.965-56.832 9.727-69.149 -6 4-13.519 12.6-17.765 22.646C44.692 23.606 51.123 11.063 59 6c-13.274 4.286-19.292 15.971-22.461 23.692C41.606 7.936 59.577 3.009 66.338-2.241 46.903-0.249 37.683 11.521 30.683 17.521 39.525 3.052 51.008-4.183 69.016-13.938c-3.097 0.738-6.091 1.604-8.907 2.624 -23.241 8.537-45.426 35.3-44.1 59.82 0.534-2.312 1.689-7.771 3.347-10.7 4.39-7.421 7.084-12.414 19.143-22.311 -4.311 7.94-9.086 17.787-11.97 26.22 -0.379 1.2-0.099-0.002-0.92 3.19 -4.831 19.61-4.502 36.043 4.05 57.6 0-0.617-0.12-5.095-0.21-6.84 -0.829-30.82-3.078-26.765 4.546-46.484 -1.788 11.785-5.229 15.159 3.954 54.514 2.669 11.057 7.916 20.029 9.11 21.63 2.258 3.269 11.117 15.923 14.49 20.58 -0.205-0.998-3.327-14.442-3.46-15.01 0.075 0.201 0.149 0.398 0.224 0.6 -3.956-14.168-9.11-30.122-8.1-45.688 2.957 4.436 8.314 11.276 12.339 14.709 -2.166-5.199-11.455-39.957-5.884-58.116 6.415 19.058 17.901 30.843 28.959 35.166C90.152 84 96.677 90.884 102.587 95.204c-3.693-7.418-14.389-22.06-13.441-31.808 6.019 10.762 17.187 23.032 22.754 24.513C94.746 59.06 87.155 30.495 98.25 19.439c3.165 2.303 7.121 9.95 9.321 15.031 0.018-1.067 0.018-1.067 0 0 0.155 0.358 0.303 0.706 0.439 1.036 3.816-6.809 15.501-21.191 21.898-17.104 3.72 0.333 4.728 10.728 7.586 22.708 4.045 16.953 10.875 32.875-4.194 59.398 11.119-7.509 12.444-18.398 15.07-22.79 4.999 10.392-18.126 49.618-21.001 53.267C141.619 122.75 151.022 102.456 154 95 167.552 61.07 163.558 42.403 155.728 11.564z" fill="#2c2219" stroke-width="none" opacity="1" stroke="none"></path><path id="SvgjsPath4285" d="M54.619 131.235c-4.236-6.189-8.827-15.104-12.867-30.5 0 0-0.333-1.27-0.799-3.182 -4.715-19.148-7.161-35.212-2.584-50.318 -2.627 11.899-1.206 21.003 0.692 32.688C41.148 92.628 46.781 117.201 54.619 131.235zM33.619 36.485c-5.395 14.443-7.984 24.807-7.5 39C26.623 65.374 27.51 57.158 33.619 36.485zM55.619 38.985c-2.777 13.875-4.327 20.931-1.716 33.45 1.867 9.42 3.447 14.162 6.216 23.3C52.657 61.519 52.504 64.386 55.619 38.985zM72.869 41.735c1.788 20.072 12.09 36.972 27.25 50.5C86.549 77.997 75.978 60.925 72.869 41.735zM85.619 47.235c5.267 19.48 9.782 27.643 25.61 39.93C96.521 73.738 92.827 67.68 85.619 47.235zM165.804 32.739c-0.605-1.818-6.422-13.972-13.814-22.025 5.357 6.684 9.14 14.642 12.457 21.823 0.001 0 0.112 0.219 0.249 0.629 4.96 13.976 5.59 33.072 5.089 39.832C171.294 63.328 170.692 46.457 165.804 32.739zM152.88 94.235c-4.602 8.878-6.871 12.852-7.598 14.196 0.001 0-0.066 0.145-0.216 0.378 -7.072 11.362-8.508 11.86-15.897 20.216C140.68 117.921 143.675 115.46 152.88 94.235zM143.299 67.99c0.153 13.452-2.029 20.352-9.018 31.167C141.371 89.838 144.452 82.171 143.299 67.99zM53.368 117.333c0 0-0.196-0.748-0.432-1.883 -3.218-15.218-3.527-22.919-3.817-29.715 -0.429 13.946 0.793 27.354 8.5 50.75C57.619 136.485 55.753 127.676 53.368 117.333zM28.804 16.079c3.802-5.144 5.058-6.782 9.815-11.093 -8.532 6.663-14.775 14.633-19.724 29.688 -0.392 1.132-0.346 1.071-0.776 3.062C20.969 28.461 28.804 15.473 28.804 16.079zM57.429 41.485c4.052 13.7 12.798 26.843 25.671 34C71.097 67.419 62.26 54.079 57.429 41.485zM134.553 14.582c-1.265-1.483-2.858-2.238-4.327-2.826 1 0.481 1.648 0.748 2.607 1.548 1.106 1.053 2.361 2.361 3.324 4.244 5.606 10.221 9.457 41.919 10.297 52.955C146.421 59.6 143.574 24.02 134.553 14.582zM97.769 13.216c4.979 0.069 8.812 0.213 12.009 12.171C107.379 12.334 101.588 13.007 97.769 13.216zM89.335-0.068C80.56 6.535 75.979 18.659 75.792 29.408 76.833 18.938 81.454 6.861 89.335-0.068z" fill="#4a423a" stroke-width="none" opacity="1" stroke="none"></path><path id="SvgjsPath4286" d="M155.831 11.662c-7.896-9.582-18.174-17.143-29.602-22.027 -19.196-8.478-46.619-8.019-66.12-0.95 -23.241 8.537-45.426 35.3-44.1 59.82 2.566-11.025 8.714-20.72 22.49-33.01 -4.311 7.94-9.086 17.787-11.97 26.22 -0.379 1.2-0.099-0.002-0.92 3.19 -4.831 19.61-4.502 36.043 4.05 57.6 0-0.617-0.12-5.095-0.21-6.84 -0.829-30.82 0.813-32.675 5.837-51.161 -3.8 12.478-6.519 19.835 2.663 59.19 2.669 11.057 7.916 20.029 9.11 21.63 2.258 3.269 11.117 15.923 14.49 20.58 -0.206-1-11.993-45.903-11.29-58.21 3.365 4.433 9.484 11.38 13.86 14.88 -2.168-6.381-5.93-23.423-6.5-27.07 -0.09-0.65-0.22-1.57-0.38-2.68 -1.189-7.291-1.932-21.021-0.26-29.18 1.481 5.059 4.965 13.05 8.2 17.43 6.745 9.379 9.956 11.43 19.71 16.9 6.016 8.228 11.756 13.338 19.13 18.68 -11.845-20.011-13.297-24.944-14.49-32.12 5.456 11.223 12.598 19.667 23.689 24.61 -8.703-17.044-22.838-44.488-17.459-62.38 0.946-3.081 2.045-5.154 2.57-5.85v-0.02c0.068-0.147 0.06-0.129 0.1-0.2 1.688 1.205 7.787 9.563 9.5 15.56 0.011-0.01 0.011-0.02 0.021-0.03 1.267-2.533 4.484-7.169 7.729-10.56 16.615-16.613 16.758-2.04 18.721 7.41 8.082 32.594 11.446 46.342-3.431 69.58 8.596-3.947 15.656-15.089 17.521-24.45 -3.159 23.102-11.221 34.676-23.69 55.74 2.91-2.089 2.59-1.882 3.59-2.61 32.326-22.212 42.264-80.399 30.242-102.902 8.775 19.989 0.511 75.588-29.771 101.052 19.955-29.485 20.537-43.486 22.56-65.62 1.35-14.309 0.449-18.735-0.479-23.47 0.543 4.677 0.84 7.448-0.261 17.42 -1.973 15.043-4.987 31.514-16.689 41.79 13.733-20.855 10.343-35.993 2.68-65.98 -1.979-7.784-2.434-23.397-15.47-14.3 -5.16 3.425-10.166 10.124-12.99 15.68 -1.562-5.649-4.792-11.777-9.97-17.24 -0.02-0.02-0.05-0.07-0.07-0.06 -1.822 2.912-10.67 11.246-2.61 37.07 3.86 12.465 9.448 22.083 15.67 32.39 -13.746-7.828-28.114-32.458-26.791-51.62 0.313-5.359 1.382-12.417 1.22-17.9 -0.807 13.3-5.346 21.354-0.98 34.6 0 0 1.26 4.12 3.15 8.55 0.561 13.101 6.94 22.296 13.94 33.65 -17.286-15.125-27.847-36.655-30.3-57.9 -0.6-8.81 3.465-23.018 7.2-25.15 -3.907 2.627-8.805 12.239-9.31 23.48 -0.385 10.926 6.498 30.484 14.2 41.27 -9.374-6.058-18.5-12.899-26.13-34.66 1.899-8.935 4.806-14.084 5.6-25.91 -1.883 12.57-4.897 15.589-8.03 28.11 -2.011 7.073-2.438 30.361 6.75 55.33 -5.463-6.071-14.528-19.557-16.93-27.3 -8.496-22.848 3.521-47.839 6.52-51.8 1.659-2.32 4.089-4.836 5.07-7.43 -3.984 6.947-6.792 4.377-14.27 24.56 -3.99 11.964-3.175 25.464 0.46 35.44 1.321 3.516 4.859 9.505 6.88 14.2 -1.688 13.469 5.969 41.852 9.82 54.5 -10.324-16.373-17.78-24.85-22.22-53.02 -3.586-22.754-7.284-36.619 11.98-75.14 -3.442 6.136-5.164 9.043-9.13 17.13l-0.01 0.01c-9.9 20.647-13.651 35.24-12.38 60.03 -6.982-29.604 0.523-49.203 13.14-76.29C42.383 11.562 54.786 3.262 59.629 0c-4.802 2.877-35.973 19.182-42.84 43.215C19.123 22.46 38.134-1.463 60.599-9.475c18.812-6.53 46.021-7.101 64.75 1.18 12.789 5.481 23.954 14.45 31.83 25.437L155.831 11.662z" fill="#0d0905" stroke-width="none" opacity="1" stroke="none"></path></g><g id="svga-group-glasses-single" ><path id="SvgjsPath4380" d="M131.02,103.52c-5.04,0-9.99-0.93-12.91-2.44c-4.28-2.2-9.46-7.32-9.81-19.2c-0.01-0.33-0.02-0.67-0.02-1.01c-0.03-4.9,5.56-7.31,8.86-7.96c4.33-0.85,8.13-1.23,12.33-1.23c3.93,0,7.94,0.35,11.7,0.72c2.38,0.19,4.69,1.4,6.32,3.33c1.41,1.67,2.11,3.87,2.14,6.7c0.01,0.63,0,1.3-0.02,1.98c-0.16,3.94-0.96,8.51-1.41,10.59C147.05,100.34,140.63,103.52,131.02,103.52C131.02,103.52,131.02,103.52,131.02,103.52z M68.98,103.52c5.04,0,9.98-0.93,12.91-2.44c4.28-2.2,9.46-7.33,9.81-19.2c0.01-0.33,0.02-0.67,0.02-1.01c0.03-4.84-5.56-7.23-8.86-7.88c-4.33-0.85-8.13-1.23-12.33-1.23c-3.93,0-7.94,0.35-11.67,0.72c-2.45,0.19-4.76,1.38-6.34,3.26c-1.41,1.67-2.11,3.86-2.14,6.69c-0.01,0.64-0.01,1.31,0.02,1.99c0.16,3.95,0.96,8.52,1.41,10.6C52.96,100.34,59.38,103.52,68.98,103.52C68.98,103.52,68.98,103.52,68.98,103.52z" fill="#2f1515" stroke-width="none" opacity="0.85"></path><path id="SvgjsPath4381" d="M148.61,84.38c-6.16-5.42-27.32-5.61-39.3-2.53c-0.01-0.32-0.02-0.65-0.02-0.99c-0.03-4.39,5.46-6.46,8.05-6.97c8.35-1.64,14.49-1.42,23.73-0.5c2.2,0.17,4.24,1.3,5.66,2.98c1.42,1.69,1.88,3.86,1.9,6.07C148.65,83.07,148.64,83.72,148.61,84.38z M82.66,73.97c-8.35-1.64-14.49-1.42-23.73-0.5c-2.2,0.17-4.24,1.22-5.66,2.9c-1.42,1.69-1.88,3.86-1.9,6.07c-0.01,0.62,0,1.27,0.02,1.93c6.16-5.42,27.32-5.61,39.31-2.53c0.01-0.32,0.02-0.65,0.02-0.99C90.74,76.48,85.25,74.48,82.66,73.97z" fill="#ffffff" stroke-width="none" opacity="0.05"></path><path id="SvgjsPath4382" d="M157.63 73.99H155c0-0.01 0-0.02 0-0.03 0-0.95-0.64-1.79-1.57-2.02 -16.12-4.04-31.91-3.38-45.93 1.37 -2.13 0.72-5.29 0.12-7.58 0.12 -2.28 0-5.29 0.6-7.42-0.12 -14.02-4.75-29.82-5.41-45.93-1.37C45.64 72.16 45 73 45 73.95c0 0.01 0 0.02 0 0.03h-2.63v5.61l3.2 2.22c0.82 5.85 2.55 11.49 5.27 16.63 3.42 6.49 11.07 6.83 23.05 5.89 5.19-0.41 10.26-1.96 13.89-5.69 6.76-6.93 6.95-19.47 12.15-19.47 5.5 0 5.45 12.43 12.31 19.47 3.63 3.73 8.7 5.28 13.89 5.69 11.97 0.94 19.63 0.59 23.05-5.89 2.71-5.14 4.44-10.78 5.27-16.63l3.2-2.22V73.99zM81.43 100.2c-6.82 3.51-26.61 4.02-28.65-5.39 -0.38-1.74-1.52-7.76-1.41-12.35 0.02-2.21 0.48-4.38 1.9-6.07 1.42-1.69 3.46-2.73 5.66-2.9 9.24-0.92 15.38-1.15 23.73 0.5 2.59 0.51 8.08 2.5 8.05 6.89C90.64 93.27 85.29 98.21 81.43 100.2zM147.22 94.81c-2.04 9.41-21.83 8.9-28.65 5.39 -3.87-1.99-9.21-6.92-9.29-19.33 -0.03-4.39 5.46-6.38 8.05-6.89 8.35-1.64 14.49-1.42 23.73-0.5 2.2 0.17 4.24 1.22 5.66 2.9 1.42 1.69 1.88 3.86 1.9 6.07C148.74 87.05 147.6 93.07 147.22 94.81z" fill="#2c2c2c" stroke-width="none" opacity="1" stroke="none"></path><path id="SvgjsPath4383" d="M147.73 92.58c0.64-3.73 1.21-9.04 0.54-12.74 -0.46-2.98-2.33-5.58-8.94-6.48 0 0-8.53-1.03-15.88-0.22 -16.17 1.53-15.04 6.63-13.48 14.89 -1.87-8-3.65-14.81 15.92-15.89 7.27-0.41 13.54 0.38 13.54 0.38C147.02 73.53 151.38 76.46 147.73 92.58zM52.27 92.58c-0.64-3.73-1.21-9.04-0.54-12.74 0.46-2.98 2.33-5.63 8.94-6.54 0 0 8.53-1.03 15.88-0.22 16.16 1.53 15.04 6.68 13.48 14.94 1.87-8 3.65-14.81-15.92-15.89 -7.27-0.41-13.54 0.38-13.54 0.38C52.98 73.53 48.62 76.46 52.27 92.58zM107.5 74.3c-0.11-0.14-0.29-0.22-0.47-0.2l-1.66 0.19c-0.32 0.04-0.59 0.23-0.73 0.52l-2.18 4.4c-1.41-0.89-3.39-0.97-4.92 0l-2.18-4.4c-0.14-0.29-0.42-0.48-0.73-0.52l-1.66-0.19c-0.18-0.02-0.36 0.05-0.47 0.2s-0.14 0.34-0.08 0.51l2.94 7.74c0 0-1.1 3.72-2.18 6.66 2-3.85 2.97-10.03 6.83-10.03 0 0 0 0 0 0 0 0 0 0 0 0 3.86 0 4.82 6.18 6.83 10.03 -1.08-2.93-2.18-6.66-2.18-6.66l2.94-7.74C107.64 74.64 107.61 74.45 107.5 74.3z" fill="#1d1a1a" stroke-width="none" opacity="1" stroke="none"></path><path id="SvgjsPath4384" d="M147.93 94.61c-0.62 1.82-1.49 3.43-2.89 4.75 -3.33 3.16-10 3.95-14.69 3.83 -6.82-0.17-9.77-1.34-12.39-2.78 -2.14-1.33-3.71-2.54-5.84-5.74 2.65 3.62 5.1 5.52 9.66 6.96 9.02 2.26 19.27 0.94 23.09-2.42C146.3 97.97 147.24 96.39 147.93 94.61zM52.07 94.61c0.61 1.82 1.49 3.43 2.89 4.75 3.33 3.16 10 3.95 14.69 3.83 6.82-0.17 9.77-1.34 12.39-2.78 2.14-1.33 3.71-2.54 5.84-5.74 -2.65 3.62-5.1 5.52-9.66 6.96 -9.02 2.26-19.27 0.94-23.09-2.42C53.7 97.97 52.76 96.39 52.07 94.61z" fill="#3b3b3b" stroke-width="none" opacity="1" stroke="none"></path></g></g></g><rect id="SvgjsRect4098" width="200" height="15" x="0" y="185" fill="#ecf0f1" opacity="0.5" style="display:none;"></rect><text id="SvgjsText4099" font-family="&quot;Roboto&quot;, &quot;Helvetica Neue&quot;, Helvetica, Arial, sans-serif" style="font-size:0.84em;font-family:&quot;Roboto&quot;, &quot;Helvetica Neue&quot;, Helvetica, Arial, sans-serif;text-anchor:middle;font-weight:400;display:none;" font-size="0.84em" text-anchor="middle" font-weight="400" fill="#000000" x="100" y="185"><tspan id="SvgjsTspan4100" dy="1.2em" x="100" style="font-size:0.84em;font-family:&quot;Roboto&quot;, &quot;Helvetica Neue&quot;, Helvetica, Arial, sans-serif;text-anchor:middle;font-weight:400;">Created on AvatarMaker.com</tspan></text></g><defs id="SvgjsDefs4063"><radialGradient id="SvgjsRadialGradient4114" cx="100" cy="114" r="41" gradientUnits="userSpaceOnUse" class="svga-on-canvas-facehighlight-gradient-single-0"><stop id="SvgjsStop4115" stop-opacity="0.5" stop-color="#e9bfa9" offset="0" ></stop><stop id="SvgjsStop4116" stop-opacity="0" stop-color="#daa488" offset="0.9" ></stop></radialGradient><radialGradient id="SvgjsRadialGradient4118" cx="100" cy="54" r="37" gradientUnits="userSpaceOnUse" class="svga-on-canvas-facehighlight-gradient-single-1"><stop id="SvgjsStop4119" stop-opacity="0.5" stop-color="#e9bfa9" offset="0" ></stop><stop id="SvgjsStop4120" stop-opacity="0" stop-color="#daa488" offset="0.9" ></stop></radialGradient><radialGradient id="SvgjsRadialGradient4203" cx="-568.659" cy="-521.042" r="59.751" gradientTransform="matrix(0.096 -0.0248 0.0245 0.0961 141.2814 119.9893)" gradientUnits="userSpaceOnUse" class="svga-on-canvas-eyesiris-gradient-left-1"><stop id="SvgjsStop4204" stop-opacity="1" stop-color="#ffffff" offset="0" ></stop><stop id="SvgjsStop4205" stop-opacity="0" stop-color="#ffffff" offset="1" ></stop></radialGradient><radialGradient id="SvgjsRadialGradient4207" cx="-582.838" cy="-519.099" r="59.745" gradientTransform="matrix(0.0991 8.856319e-004 -0.0011 0.0991 131.1134 135.9855)" gradientUnits="userSpaceOnUse" class="svga-on-canvas-eyesiris-gradient-left-2"><stop id="SvgjsStop4208" stop-opacity="1" stop-color="#ffffff" offset="0" ></stop><stop id="SvgjsStop4209" stop-opacity="0" stop-color="#ffffff" offset="1" ></stop></radialGradient><linearGradient id="SvgjsLinearGradient4213" x1="122.67" y1="88.268" x2="123.606" y2="87.152" gradientTransform="matrix(1 0 0 1 -52 0)" gradientUnits="userSpaceOnUse" class="svga-on-canvas-eyesiris-gradient-left-5"><stop id="SvgjsStop4214" stop-opacity="1" stop-color="#ffffff" offset="0" ></stop><stop id="SvgjsStop4215" stop-opacity="0" stop-color="#ffffff" offset="1" ></stop></linearGradient><linearGradient id="SvgjsLinearGradient4217" x1="127.212" y1="82.296" x2="126.463" y2="83.189" gradientTransform="matrix(1 0 0 1 -52 0)" gradientUnits="userSpaceOnUse" class="svga-on-canvas-eyesiris-gradient-left-6"><stop id="SvgjsStop4218" stop-opacity="1" stop-color="#ffffff" offset="0" ></stop><stop id="SvgjsStop4219" stop-opacity="0" stop-color="#ffffff" offset="1" ></stop></linearGradient><linearGradient id="SvgjsLinearGradient4221" x1="129.636" y1="79.822" x2="127.91" y2="81.879" gradientTransform="matrix(1 0 0 1 -52 0)" gradientUnits="userSpaceOnUse" class="svga-on-canvas-eyesiris-gradient-left-7"><stop id="SvgjsStop4222" stop-opacity="1" stop-color="#ffffff" offset="0" ></stop><stop id="SvgjsStop4223" stop-opacity="0" stop-color="#ffffff" offset="1" ></stop></linearGradient><radialGradient id="SvgjsRadialGradient4226" cx="-568.654" cy="-521.042" r="59.752" gradientTransform="matrix(0.096 -0.0248 0.0245 0.0961 193.2804 119.9894)" gradientUnits="userSpaceOnUse" class="svga-on-canvas-eyesiris-gradient-right-1"><stop id="SvgjsStop4227" stop-opacity="1" stop-color="#ffffff" offset="0" ></stop><stop id="SvgjsStop4228" stop-opacity="0" stop-color="#ffffff" offset="1" ></stop></radialGradient><radialGradient id="SvgjsRadialGradient4230" cx="-582.833" cy="-519.102" r="59.747" gradientTransform="matrix(0.0991 8.856319e-004 -0.0011 0.0991 183.1126 135.9856)" gradientUnits="userSpaceOnUse" class="svga-on-canvas-eyesiris-gradient-right-2"><stop id="SvgjsStop4231" stop-opacity="1" stop-color="#ffffff" offset="0" ></stop><stop id="SvgjsStop4232" stop-opacity="0" stop-color="#ffffff" offset="1" ></stop></radialGradient><linearGradient id="SvgjsLinearGradient4236" x1="122.67" y1="88.268" x2="123.606" y2="87.152" gradientUnits="userSpaceOnUse" class="svga-on-canvas-eyesiris-gradient-right-5"><stop id="SvgjsStop4237" stop-opacity="1" stop-color="#ffffff" offset="0" ></stop><stop id="SvgjsStop4238" stop-opacity="0" stop-color="#ffffff" offset="1" ></stop></linearGradient><linearGradient id="SvgjsLinearGradient4240" x1="127.212" y1="82.296" x2="126.463" y2="83.189" gradientUnits="userSpaceOnUse" class="svga-on-canvas-eyesiris-gradient-right-6"><stop id="SvgjsStop4241" stop-opacity="1" stop-color="#ffffff" offset="0" ></stop><stop id="SvgjsStop4242" stop-opacity="0" stop-color="#ffffff" offset="1" ></stop></linearGradient><linearGradient id="SvgjsLinearGradient4244" x1="129.636" y1="79.822" x2="127.91" y2="81.879" gradientUnits="userSpaceOnUse" class="svga-on-canvas-eyesiris-gradient-right-7"><stop id="SvgjsStop4245" stop-opacity="1" stop-color="#ffffff" offset="0" ></stop><stop id="SvgjsStop4246" stop-opacity="0" stop-color="#ffffff" offset="1" ></stop></linearGradient><radialGradient id="SvgjsRadialGradient4307" cx="127.199" cy="84.835" r="14" gradientTransform="matrix(-1 0 0 1 200 0)" gradientUnits="userSpaceOnUse" class="svga-on-canvas-eyesback-gradient-left-0"><stop id="SvgjsStop4308" stop-opacity="1" stop-color="#ffffff" offset="0" ></stop><stop id="SvgjsStop4309" stop-opacity="1" stop-color="#fdfefe" offset="0.544" ></stop><stop id="SvgjsStop4310" stop-opacity="1" stop-color="#f6f8f9" offset="0.74" ></stop><stop id="SvgjsStop4311" stop-opacity="1" stop-color="#eaeff2" offset="0.879" ></stop><stop id="SvgjsStop4312" stop-opacity="1" stop-color="#d9e3e8" offset="0.992" ></stop><stop id="SvgjsStop4313" stop-opacity="1" stop-color="#d8e2e7" offset="1" ></stop></radialGradient><radialGradient id="SvgjsRadialGradient4315" cx="126.801" cy="84.835" r="14" gradientUnits="userSpaceOnUse" class="svga-on-canvas-eyesback-gradient-right-0"><stop id="SvgjsStop4316" stop-opacity="1" stop-color="#ffffff" offset="0" ></stop><stop id="SvgjsStop4317" stop-opacity="1" stop-color="#fdfefe" offset="0.544" ></stop><stop id="SvgjsStop4318" stop-opacity="1" stop-color="#f6f8f9" offset="0.74" ></stop><stop id="SvgjsStop4319" stop-opacity="1" stop-color="#eaeff2" offset="0.879" ></stop><stop id="SvgjsStop4320" stop-opacity="1" stop-color="#d9e3e8" offset="0.992" ></stop><stop id="SvgjsStop4321" stop-opacity="1" stop-color="#d8e2e7" offset="1" ></stop></radialGradient><radialGradient id="SvgjsRadialGradient4323" cx="127.199" cy="84.835" r="14" gradientTransform="matrix(-1 0 0 1 200 0)" gradientUnits="userSpaceOnUse" class="svga-on-canvas-eyesfront-gradient-left-0"><stop id="SvgjsStop4324" stop-opacity="1" stop-color="#ffffff" offset="0" ></stop><stop id="SvgjsStop4325" stop-opacity="1" stop-color="#fdfefe" offset="0.544" ></stop><stop id="SvgjsStop4326" stop-opacity="1" stop-color="#f6f8f9" offset="0.74" ></stop><stop id="SvgjsStop4327" stop-opacity="1" stop-color="#eaeff2" offset="0.879" ></stop><stop id="SvgjsStop4328" stop-opacity="1" stop-color="#d9e3e8" offset="0.992" ></stop><stop id="SvgjsStop4329" stop-opacity="1" stop-color="#d8e2e7" offset="1" ></stop></radialGradient><radialGradient id="SvgjsRadialGradient4333" cx="125.36" cy="83.943" fx="138.934" fy="82.45" r="18.705" gradientTransform="matrix(0.9998 0.0208 0.0131 -0.6281 -51.791 134.0611)" gradientUnits="userSpaceOnUse" class="svga-on-canvas-eyesfront-gradient-left-3"><stop id="SvgjsStop4334" stop-opacity="1" stop-color="#cb8b6a" offset="0" ></stop><stop id="SvgjsStop4335" stop-opacity="0.3" stop-color="#cb8b6a" offset="0.7" ></stop><stop id="SvgjsStop4336" stop-opacity="0" stop-color="#daa488" offset="1" ></stop></radialGradient><radialGradient id="SvgjsRadialGradient4338" cx="67.679" cy="106.859" r="29.505" gradientTransform="matrix(1.0322 -0.0541 0.0541 1.0322 -5.894 5.3941)" gradientUnits="userSpaceOnUse" class="svga-on-canvas-eyesfront-gradient-left-4"><stop id="SvgjsStop4339" stop-opacity="0" stop-color="#000000" offset="0.95" ></stop><stop id="SvgjsStop4340" stop-opacity="0.2" stop-color="#000000" offset="1" ></stop></radialGradient><radialGradient id="SvgjsRadialGradient4344" cx="126.801" cy="84.835" r="14" gradientUnits="userSpaceOnUse" class="svga-on-canvas-eyesfront-gradient-right-0"><stop id="SvgjsStop4345" stop-opacity="1" stop-color="#ffffff" offset="0" ></stop><stop id="SvgjsStop4346" stop-opacity="1" stop-color="#fdfefe" offset="0.544" ></stop><stop id="SvgjsStop4347" stop-opacity="1" stop-color="#f6f8f9" offset="0.74" ></stop><stop id="SvgjsStop4348" stop-opacity="1" stop-color="#eaeff2" offset="0.879" ></stop><stop id="SvgjsStop4349" stop-opacity="1" stop-color="#d9e3e8" offset="0.992" ></stop><stop id="SvgjsStop4350" stop-opacity="1" stop-color="#d8e2e7" offset="1" ></stop></radialGradient><radialGradient id="SvgjsRadialGradient4354" cx="124.961" cy="83.943" fx="138.535" fy="82.45" r="18.705" gradientTransform="matrix(-0.9998 0.0208 -0.0131 -0.6281 250.9922 134.0695)" gradientUnits="userSpaceOnUse" class="svga-on-canvas-eyesfront-gradient-right-3"><stop id="SvgjsStop4355" stop-opacity="1" stop-color="#cb8b6a" offset="0" ></stop><stop id="SvgjsStop4356" stop-opacity="0.3" stop-color="#cb8b6a" offset="0.7" ></stop><stop id="SvgjsStop4357" stop-opacity="0" stop-color="#daa488" offset="1" ></stop></radialGradient><radialGradient id="SvgjsRadialGradient4359" cx="68.065" cy="106.876" r="29.506" gradientTransform="matrix(-1.0322 -0.0541 -0.0541 1.0322 205.8938 5.3986)" gradientUnits="userSpaceOnUse" class="svga-on-canvas-eyesfront-gradient-right-4"><stop id="SvgjsStop4360" stop-opacity="0" stop-color="#000000" offset="0.95" ></stop><stop id="SvgjsStop4361" stop-opacity="0.2" stop-color="#000000" offset="1" ></stop></radialGradient><linearGradient id="SvgjsLinearGradient4386" x1="100" y1="141" x2="100" y2="137" gradientUnits="userSpaceOnUse" class="svga-on-canvas-mouth-gradient-single-0"><stop id="SvgjsStop4387" stop-opacity="1" stop-color="#d29779" offset="0.1" ></stop><stop id="SvgjsStop4388" stop-opacity="1" stop-color="#cb8b6a" offset="1" ></stop></linearGradient><linearGradient id="SvgjsLinearGradient4413" x1="100" y1="172" x2="100" y2="133" gradientUnits="userSpaceOnUse" class="svga-on-canvas-chinshadow-gradient-single-0"><stop id="SvgjsStop4414" stop-opacity="0.8" stop-color="#cb8b6a" offset="0" ></stop><stop id="SvgjsStop4415" stop-opacity="1" stop-color="#ac5f38" offset="0.7" ></stop></linearGradient></defs></svg>