<?xml version="1.0" encoding="UTF-8" standalone="no"?>
<!-- Generator: Adobe Illustrator 19.0.0, SVG Export Plug-In . SVG Version: 6.00 Build 0)  -->

<svg
   xmlns:dc="http://purl.org/dc/elements/1.1/"
   xmlns:cc="http://creativecommons.org/ns#"
   xmlns:rdf="http://www.w3.org/1999/02/22-rdf-syntax-ns#"
   xmlns:svg="http://www.w3.org/2000/svg"
   xmlns="http://www.w3.org/2000/svg"
   xmlns:sodipodi="http://sodipodi.sourceforge.net/DTD/sodipodi-0.dtd"
   xmlns:inkscape="http://www.inkscape.org/namespaces/inkscape"
   version="1.1"
   id="Capa_1"
   x="0px"
   y="0px"
   viewBox="0 0 59 59"
   style="enable-background:new 255 255 59 59;"
   xml:space="preserve"
   inkscape:version="0.91 r13725"
   sodipodi:docname="minior.svg"><metadata
   id="metadata49"><rdf:RDF><cc:Work
       rdf:about=""><dc:format>image/svg+xml</dc:format><dc:type
         rdf:resource="http://purl.org/dc/dcmitype/StillImage" /><dc:title></dc:title></cc:Work></rdf:RDF></metadata><defs
   id="defs47" /><sodipodi:namedview
   pagecolor="#ffffff"
   bordercolor="#666666"
   borderopacity="1"
   objecttolerance="10"
   gridtolerance="10"
   guidetolerance="10"
   inkscape:pageopacity="0"
   inkscape:pageshadow="2"
   inkscape:window-width="789"
   inkscape:window-height="480"
   id="namedview45"
   showgrid="false"
   inkscape:zoom="3.9689922"
   inkscape:cx="29.5"
   inkscape:cy="29.25"
   inkscape:window-x="0"
   inkscape:window-y="0"
   inkscape:window-maximized="0"
   inkscape:current-layer="Capa_1" />
<g
   id="g3"
   style="fill:#ffffff">
	<g
   id="g5"
   style="fill:#ffffff">
		<path
   d="M16.088,12.047c1.488-2.082,3.397-3.751,5.672-4.961l0.883-0.47l-0.939-1.766l-0.883,0.47    c-2.551,1.356-4.691,3.229-6.361,5.564l-0.582,0.814l1.627,1.163L16.088,12.047z"
   id="path7"
   style="fill:#ffffff" />
		<rect
   x="26.5"
   y="38"
   width="6"
   height="2"
   id="rect9"
   style="fill:#ffffff" />
		<path
   d="M24.5,30c1.103,0,2-0.897,2-2h6c0,1.103,0.897,2,2,2s2-0.897,2-2h2v-2h-18v2h2C22.5,29.103,23.397,30,24.5,30z"
   id="path11"
   style="fill:#ffffff" />
		<path
   d="M51.506,49H41.254l-1.915-6.704c3.155-2.751,5.161-6.788,5.161-11.292v-0.095c2.279-0.418,4-2.236,4-4.409    c0-1.421-0.75-2.675-1.896-3.5H50.5c0.552,0,1-0.447,1-1c0-12.131-9.869-22-22-22s-22,9.869-22,22c0,0.553,0.448,1,1,1h3.896    c-1.146,0.825-1.896,2.079-1.896,3.5c0,2.173,1.721,3.991,4,4.409v0.095c0,4.504,2.006,8.541,5.161,11.292L17.746,49H7.494    C4.74,49,2.5,51.243,2.5,54v4c0,0.553,0.448,1,1,1h5h8h39c0.552,0,1-0.447,1-1v-4C56.5,51.243,54.26,49,51.506,49z M39.174,49    H30.5v-3.051c2.615-0.174,5.047-1.013,7.128-2.36L39.174,49z M44.5,28.847v-4.693c1.161,0.345,2,1.261,2,2.347    S45.661,28.501,44.5,28.847z M29.5,2c10.693,0,19.453,8.435,19.975,19H44.5v-1.003V18.5c0-0.301-0.136-0.586-0.369-0.776    c-0.233-0.19-0.539-0.266-0.835-0.202L29.5,20.396l-13.796-2.874c-0.295-0.063-0.602,0.013-0.835,0.202    C14.636,17.914,14.5,18.199,14.5,18.5v1.497V21H9.525C10.047,10.435,18.807,2,29.5,2z M12.5,26.5c0-1.085,0.839-2.001,2-2.347    v4.693C13.339,28.501,12.5,27.585,12.5,26.5z M16.5,31.004V31v-2v-5v-2v-2.003V19.73l12.796,2.666    c0.135,0.029,0.273,0.029,0.408,0L42.5,19.729v0.268V22v2v5v2v0.004C42.5,38.17,36.668,44,29.5,44S16.5,38.17,16.5,31.004z     M21.372,43.589c2.081,1.348,4.513,2.187,7.128,2.36V49h-8.674L21.372,43.589z M9.5,57v-3h6v3H9.5z M54.5,57h-37v-4    c0-0.553-0.448-1-1-1h-8c-0.552,0-1,0.447-1,1v4h-3v-3c0-1.654,1.343-3,2.994-3H18.5h11h11h11.006c1.651,0,2.994,1.346,2.994,3V57    z"
   id="path13"
   style="fill:#ffffff" />
	</g>
</g>
<g
   id="g15">
</g>
<g
   id="g17">
</g>
<g
   id="g19">
</g>
<g
   id="g21">
</g>
<g
   id="g23">
</g>
<g
   id="g25">
</g>
<g
   id="g27">
</g>
<g
   id="g29">
</g>
<g
   id="g31">
</g>
<g
   id="g33">
</g>
<g
   id="g35">
</g>
<g
   id="g37">
</g>
<g
   id="g39">
</g>
<g
   id="g41">
</g>
<g
   id="g43">
</g>
</svg>