<?xml version="1.0" encoding="UTF-8" standalone="no"?>
<!-- Generator: Adobe Illustrator 19.0.0, SVG Export Plug-In . SVG Version: 6.00 Build 0)  -->

<svg
   xmlns:dc="http://purl.org/dc/elements/1.1/"
   xmlns:cc="http://creativecommons.org/ns#"
   xmlns:rdf="http://www.w3.org/1999/02/22-rdf-syntax-ns#"
   xmlns:svg="http://www.w3.org/2000/svg"
   xmlns="http://www.w3.org/2000/svg"
   xmlns:sodipodi="http://sodipodi.sourceforge.net/DTD/sodipodi-0.dtd"
   xmlns:inkscape="http://www.inkscape.org/namespaces/inkscape"
   version="1.1"
   id="Capa_1"
   x="0px"
   y="0px"
   viewBox="0 0 59 59"
   style="enable-background:new 0 0 59 59;"
   xml:space="preserve"
   inkscape:version="0.91 r13725"
   sodipodi:docname="senior.svg"><metadata
   id="metadata49"><rdf:RDF><cc:Work
       rdf:about=""><dc:format>image/svg+xml</dc:format><dc:type
         rdf:resource="http://purl.org/dc/dcmitype/StillImage" /><dc:title></dc:title></cc:Work></rdf:RDF></metadata><defs
   id="defs47" /><sodipodi:namedview
   pagecolor="#ffffff"
   bordercolor="#666666"
   borderopacity="1"
   objecttolerance="10"
   gridtolerance="10"
   guidetolerance="10"
   inkscape:pageopacity="0"
   inkscape:pageshadow="2"
   inkscape:window-width="789"
   inkscape:window-height="480"
   id="namedview45"
   showgrid="false"
   inkscape:zoom="3.9689922"
   inkscape:cx="29.5"
   inkscape:cy="29.25"
   inkscape:window-x="0"
   inkscape:window-y="0"
   inkscape:window-maximized="0"
   inkscape:current-layer="Capa_1" />
<g
   id="g3"
   style="fill:#ffffff">
	<g
   id="g5"
   style="fill:#ffffff">
		<path
   d="M44.26,26c-1.069-1.85-3.061-3-5.196-3s-4.127,1.149-5.196,3c-0.18,0.31-0.18,0.691,0,1.001c1.069,1.85,3.061,3,5.196,3    s4.127-1.149,5.196-3C44.439,26.691,44.439,26.309,44.26,26z M39.063,28c-1.22,0-2.369-0.563-3.122-1.5    c0.753-0.937,1.902-1.5,3.122-1.5s2.369,0.563,3.122,1.5C41.433,27.437,40.283,28,39.063,28z"
   id="path7"
   style="fill:#ffffff" />
		<path
   d="M19.063,23c-2.136,0-4.127,1.149-5.196,3c-0.18,0.31-0.18,0.691,0,1.001c1.069,1.85,3.06,3,5.196,3s4.127-1.149,5.196-3    c0.18-0.31,0.18-0.691,0-1.001C23.19,24.15,21.199,23,19.063,23z M19.063,28c-1.22,0-2.369-0.563-3.122-1.5    c0.753-0.937,1.902-1.5,3.122-1.5s2.369,0.563,3.122,1.5C21.433,27.437,20.283,28,19.063,28z"
   id="path9"
   style="fill:#ffffff" />
		<path
   d="M44,40c0,0.543-0.188,0.785-0.352,0.935c-1.153,1.059-4.906,0.734-8.536,0.42C33.091,41.181,31,41,29,41    s-4.091,0.181-6.112,0.355c-3.628,0.314-7.384,0.639-8.536-0.42C14.188,40.785,14,40.544,14,40v-1h-2v1    c0,0.99,0.336,1.801,0.999,2.409c1.802,1.654,5.631,1.322,10.061,0.939C25.039,43.177,27.086,43,29,43s3.961,0.177,5.939,0.348    c1.857,0.16,3.608,0.312,5.149,0.312c2.135,0,3.865-0.291,4.912-1.251C45.664,41.801,46,40.99,46,40v-1h-2V40z"
   id="path11"
   style="fill:#ffffff" />
		<path
   d="M58.671,15.259c-0.209-0.19-0.49-0.281-0.771-0.254l-7.786,0.779l5.025-5.616c0.367-0.411,0.334-1.042-0.076-1.41l-5-4.5    c-0.221-0.2-0.519-0.291-0.817-0.246c-0.295,0.044-0.556,0.218-0.709,0.474l-5.387,8.978C41.865,11.982,40.599,11,39.5,11h-21    c-2.445,0-5.71,4.836-8.199,9.293c-0.077,0.076-0.145,0.16-0.195,0.26l-0.577,1.154c-0.902,1.688-1.66,3.234-2.176,4.322    C4.491,26.272,0,28.138,0,34c0,3.826,3.509,9.089,8.94,13.408C15.008,52.233,22.319,55,29,55s13.992-2.767,20.06-7.592    C54.491,43.09,58,37.826,58,34c0-5.862-4.491-7.729-7.353-7.972c-0.374-0.789-0.875-1.818-1.466-2.968l8.769,0.438    C57.967,23.5,57.983,23.5,58,23.5c0.256,0,0.503-0.098,0.689-0.275C58.888,23.036,59,22.774,59,22.5V16    C59,15.717,58.881,15.448,58.671,15.259z M48.718,26.672C46.434,28.216,41.835,31,39.5,31c-1.61,0-3.244-0.467-4.976-0.961    C32.738,29.528,30.89,29,29,29s-3.738,0.528-5.524,1.039C21.744,30.533,20.11,31,18.5,31c-2.332,0-6.933-2.784-9.218-4.328    l1.772-3.544c0.202-0.38,0.405-0.756,0.61-1.128h34.671c0.207,0.375,0.412,0.756,0.616,1.14L48.718,26.672z M49.628,6.555    l3.356,3.021l-6.997,7.82c-0.494-0.785-1.001-1.546-1.513-2.253L49.628,6.555z M18.5,13h21c1.088,0,3.355,3.016,5.698,7H12.802    C15.144,16.016,17.411,13,18.5,13z M56,34c0,6.095-12.774,19-27,19S2,40.095,2,34c0-5.255,4.42-5.908,5.701-5.987    C9.175,29.04,15.073,33,18.5,33c1.89,0,3.738-0.528,5.524-1.039C25.756,31.467,27.39,31,29,31s3.244,0.467,4.976,0.961    C35.762,32.472,37.61,33,39.5,33c3.427,0,9.325-3.959,10.798-4.987C51.585,28.093,56,28.748,56,34z M57,21.449l-8.879-0.444    l-0.226-0.452c-0.05-0.1-0.118-0.184-0.195-0.26c-0.205-0.367-0.415-0.736-0.63-1.106l1.07-1.196L57,17.105V21.449z"
   id="path13"
   style="fill:#ffffff" />
	</g>
</g>
<g
   id="g15">
</g>
<g
   id="g17">
</g>
<g
   id="g19">
</g>
<g
   id="g21">
</g>
<g
   id="g23">
</g>
<g
   id="g25">
</g>
<g
   id="g27">
</g>
<g
   id="g29">
</g>
<g
   id="g31">
</g>
<g
   id="g33">
</g>
<g
   id="g35">
</g>
<g
   id="g37">
</g>
<g
   id="g39">
</g>
<g
   id="g41">
</g>
<g
   id="g43">
</g>
</svg>